<svg width="400" height="400" viewBox="0 0 400 400" fill="none" xmlns="http://www.w3.org/2000/svg">
<path d="M346.323 51.9591C346.323 51.7151 346.226 51.4811 346.053 51.3085C345.881 51.136 345.647 51.0391 345.403 51.0391C345.159 51.0391 344.925 51.136 344.752 51.3085C344.58 51.4811 344.483 51.7151 344.483 51.9591C344.483 52.1591 340.683 256.035 340.699 256.239C330.089 257.079 319.457 257.707 308.815 258.217C296.069 258.833 242.815 260.333 228.921 260.545C214.643 260.769 81.6668 260.917 70.5468 260.811V51.9591H10.8788C10.8788 51.9591 10.8408 257.531 10.8788 260.039C10.6364 260.039 10.404 260.135 10.2325 260.307C10.0611 260.478 9.96484 260.711 9.96484 260.953C9.96484 261.195 10.0611 261.428 10.2325 261.599C10.404 261.771 10.6364 261.867 10.8788 261.867C12.9608 261.911 286.845 260.985 299.933 260.421C318.251 259.639 330.105 258.883 341.619 257.977C341.859 257.971 342.089 257.873 342.259 257.703C342.429 257.533 342.527 257.304 342.533 257.063C346.561 41.8851 346.305 52.1591 346.323 51.9591Z" fill="#BF8ABF"/>
<path d="M100.817 197.244C102.575 197.262 104.579 197.202 104.377 197.202C104.619 197.199 104.85 197.102 105.021 196.931C105.192 196.761 105.29 196.53 105.293 196.288V189.632C105.287 189.391 105.189 189.162 105.018 188.992C104.847 188.822 104.618 188.724 104.377 188.718L39.4312 187.156C39.2713 187.155 39.1139 187.196 38.9756 187.276C38.8373 187.357 38.7232 187.473 38.6452 187.612C37.1352 190.356 35.6252 193.088 34.1152 195.83C34.043 195.96 34.0034 196.105 33.9999 196.254C33.9964 196.402 34.029 196.549 34.0949 196.682C34.1608 196.815 34.2581 196.93 34.3784 197.018C34.4986 197.105 34.6382 197.161 34.7852 197.182C34.9852 197.248 47.1532 197.214 46.3632 197.214C39.9152 209.582 39.4672 238.242 10.9392 360.914C10.6632 362.062 12.4392 362.552 12.7052 361.402C15.2452 350.676 20.2212 328.788 20.2632 328.602C36.5101 331.867 52.8468 334.668 69.2532 337.002C67.2301 346.252 65.1741 355.494 63.0852 364.728C62.8212 365.876 64.5852 366.366 64.8512 365.218C67.3592 354.33 76.6512 310.636 78.7672 299.664C80.7979 289.182 82.7365 278.678 84.5832 268.152C87.1292 277.186 96.8792 278.004 102.241 270.514C105.293 266.258 107.013 257.532 107.929 252.314L116.955 307.682C117.155 308.84 118.911 308.352 118.719 307.194C115.383 286.538 104.987 222.826 100.817 197.244ZM36.4872 195.332C37.6452 193.216 38.8152 191.11 39.9732 188.996C41.9512 189.038 102.889 190.548 103.463 190.558V195.358C12.2772 195.37 42.9512 195.214 36.4872 195.332ZM48.1812 197.638C48.2534 197.501 48.2899 197.348 48.2872 197.192H93.8312C92.7152 205.336 91.5425 213.47 90.3132 221.592C77.8112 220.804 65.2872 220.55 52.7732 220.018C49.3072 219.868 42.3732 219.498 42.3732 219.498C44.0472 210.486 44.8472 203.838 48.1812 197.638ZM42.3812 221.346C58.4092 222.322 74.0472 222.442 90.0512 223.42C89.7652 225.344 86.1392 248.298 84.5132 257.832C84.2032 257.664 45.1992 258.176 35.0452 258.27C42.9592 217.844 41.6972 221.346 42.3872 221.346H42.3812ZM69.6292 335.186C52.3372 332.726 35.4632 329.804 20.6612 326.798C22.8832 316.826 27.5512 295.064 27.7412 294.17C35.0832 294.058 38.2292 294.806 77.1132 298.476C74.7711 310.743 72.2782 322.981 69.6352 335.186H69.6292ZM77.4652 296.67C37.8752 292.832 34.3212 292.28 28.1132 292.32C35.4672 257.246 34.3852 260.108 34.9132 260.108C86.6412 259.548 84.0212 259.584 84.2212 259.534C82.3112 270.488 79.6012 285.79 77.4712 296.67H77.4652ZM102.081 267.156C97.1592 277.236 84.6432 276.274 85.9332 260.618C85.9332 260.418 94.9752 202.654 95.6812 197.202C95.6812 197.202 97.9152 197.214 98.9672 197.234C101.295 211.512 106.643 244.342 106.993 246.468C106.321 251.754 104.419 262.364 102.081 267.156Z" fill="black"/>
<path d="M86.8966 102.655C176.835 102.655 168.697 102.795 169.497 102.389C169.583 102.307 169.651 102.208 169.697 102.098C169.742 101.988 169.765 101.87 169.763 101.751C169.763 63.7509 170.049 63.6209 169.125 63.4369C168.831 63.3389 86.6546 63.3729 86.8906 63.3729C86.6493 63.3765 86.4189 63.474 86.2483 63.6446C86.0776 63.8152 85.9802 64.0456 85.9766 64.2869V101.741C85.9781 101.984 86.0758 102.216 86.2481 102.388C86.4205 102.559 86.6536 102.655 86.8966 102.655ZM90.4586 100.827C101.999 96.6489 114.599 90.7989 126.775 84.9549C134.323 88.1229 160.031 98.6589 165.303 100.827H90.4586ZM167.929 99.9229C154.941 94.5914 141.961 89.2441 128.987 83.8809C137.683 79.7449 163.613 67.5089 167.929 65.6469V99.9229ZM164.485 65.1989C155.017 69.3649 146.159 73.7289 126.755 82.9629C113.725 77.4729 101.299 71.9489 88.7146 65.1989H164.485ZM87.8106 66.7989C99.7766 73.2109 112.047 78.7569 124.553 84.0229C112.586 89.9261 100.323 95.2059 87.8106 99.8409V66.7989ZM169.769 118.443C169.765 118.311 169.733 118.181 169.676 118.062C169.619 117.943 169.538 117.837 169.438 117.751C169.338 117.665 169.221 117.601 169.095 117.563C168.968 117.525 168.836 117.513 168.705 117.529H86.9046C86.6634 117.533 86.4333 117.631 86.2628 117.801C86.0923 117.972 85.9947 118.202 85.9906 118.443V176.723C85.9942 176.964 86.0916 177.195 86.2621 177.366C86.4327 177.537 86.6631 177.635 86.9046 177.639C174.867 177.639 169.043 177.763 169.447 177.415C169.465 177.397 169.487 177.383 169.511 177.373C169.597 177.291 169.665 177.192 169.711 177.082C169.756 176.972 169.779 176.854 169.777 176.735C169.877 120.277 169.769 118.243 169.769 118.443ZM87.8546 119.357C168.991 119.357 165.623 119.347 165.825 119.369C156.839 125.495 141.917 136.755 126.723 147.935C94.4486 126.799 89.2866 120.071 87.8326 119.709C87.8508 119.592 87.8582 119.475 87.8546 119.357ZM87.8126 121.931C99.7335 131.696 112.202 140.772 125.159 149.115C113.276 158.293 100.804 166.681 87.8226 174.225C87.8086 172.771 87.8126 121.657 87.8126 121.931ZM88.8126 175.767C102.131 168.525 115.725 158.281 126.789 150.167C134.123 154.973 160.829 171.999 166.799 175.821C164.209 175.799 89.3106 175.799 88.8106 175.767H88.8126ZM167.889 174.331C154.699 165.905 141.519 157.465 128.349 149.009C131.857 146.409 163.603 123.079 167.949 120.165C167.925 121.999 167.887 174.127 167.887 174.331H167.889Z" fill="#BF8ABF"/>
<path d="M345.401 47.1824C345.402 45.4714 345.066 43.7769 344.413 42.1958C343.759 40.6146 342.8 39.1777 341.591 37.9673C340.381 36.7569 338.945 35.7966 337.365 35.1414C335.784 34.4861 334.09 34.1487 332.379 34.1484H23.909C20.4522 34.1484 17.1369 35.5217 14.6926 37.966C12.2482 40.4104 10.875 43.7256 10.875 47.1824V51.9624H345.393L345.401 47.1824ZM284.835 46.9604C284.063 46.9604 283.309 46.7316 282.667 46.3028C282.025 45.8741 281.525 45.2647 281.23 44.5517C280.935 43.8387 280.857 43.0541 281.008 42.2972C281.159 41.5403 281.53 40.845 282.076 40.2993C282.622 39.7536 283.317 39.382 284.074 39.2314C284.831 39.0809 285.615 39.1581 286.328 39.4535C287.041 39.7488 287.651 40.2489 288.079 40.8906C288.508 41.5323 288.737 42.2867 288.737 43.0584C288.738 43.5712 288.637 44.0792 288.441 44.5531C288.245 45.027 287.958 45.4575 287.595 45.82C287.232 46.1826 286.802 46.4699 286.328 46.6656C285.854 46.8613 285.346 46.9615 284.833 46.9604H284.835ZM299.507 46.9604C298.735 46.9608 297.981 46.7323 297.339 46.3038C296.697 45.8753 296.196 45.266 295.901 44.5531C295.605 43.8401 295.527 43.0555 295.678 42.2984C295.828 41.5414 296.2 40.8459 296.745 40.3C297.291 39.7541 297.986 39.3823 298.743 39.2316C299.5 39.0808 300.285 39.158 300.998 39.4533C301.711 39.7485 302.32 40.2487 302.749 40.8904C303.178 41.5321 303.407 42.2866 303.407 43.0584C303.408 43.5711 303.307 44.0788 303.112 44.5526C302.916 45.0264 302.628 45.4568 302.266 45.8193C301.903 46.1818 301.473 46.4692 300.999 46.665C300.525 46.8608 300.018 46.9612 299.505 46.9604H299.507ZM314.805 46.9604C314.033 46.9604 313.279 46.7316 312.637 46.3028C311.995 45.8741 311.495 45.2647 311.2 44.5517C310.905 43.8387 310.827 43.0541 310.978 42.2972C311.129 41.5403 311.5 40.845 312.046 40.2993C312.592 39.7536 313.287 39.382 314.044 39.2314C314.801 39.0809 315.585 39.1581 316.298 39.4535C317.011 39.7488 317.621 40.2489 318.049 40.8906C318.478 41.5323 318.707 42.2867 318.707 43.0584C318.708 43.5713 318.607 44.0793 318.411 44.5532C318.215 45.0271 317.927 45.4577 317.564 45.8202C317.201 46.1827 316.77 46.47 316.296 46.6656C315.822 46.8613 315.314 46.9615 314.801 46.9604H314.805Z" fill="#A963A9"/>
<path d="M60.2471 82.0024C60.2393 78.9292 59.4938 75.9028 58.0734 73.1775C56.653 70.4522 54.5991 68.1077 52.0844 66.3411C49.5698 64.5744 46.6678 63.4372 43.6223 63.025C40.5768 62.6129 37.4769 62.9378 34.5831 63.9724C21.7611 68.4024 16.2971 85.4024 26.6011 95.2484C38.4211 106.516 60.2011 99.2404 60.2471 82.0024Z" fill="#EAD8EA"/>
<path d="M25.2392 110.6C25.3952 109.866 27.5872 111 27.9812 111.08C29.8652 111.444 30.2292 110.114 31.3092 110.134C32.0115 110.234 32.6955 110.436 33.3392 110.734C40.9392 113.186 48.9152 110.832 56.5892 112.318C57.7392 112.54 58.2372 110.776 57.0792 110.552C49.6692 109.116 41.9912 111.006 35.2792 109.372C33.6152 108.972 31.8512 107.942 30.3352 108.436C29.8132 108.606 29.4312 109 28.9352 109.212C28.3352 109.468 27.6612 109.054 27.1072 108.83C25.1592 108.06 23.7312 108.94 23.4812 110.106C23.2312 111.272 25.0012 111.766 25.2392 110.6ZM46.3212 119.018C40.0964 118.405 33.8358 118.238 27.5872 118.518C26.4072 118.572 26.4072 120.4 27.5872 120.358C33.8358 120.088 40.0957 120.255 46.3212 120.858C47.4892 120.964 47.4792 119.132 46.3212 119.018ZM53.0172 119.506C52.8164 119.633 52.6728 119.834 52.6166 120.065C52.5605 120.296 52.5962 120.539 52.7162 120.745C52.8361 120.95 53.0311 121.101 53.2599 121.165C53.4888 121.229 53.7337 121.203 53.9432 121.09C54.3323 120.913 54.7629 120.847 55.1872 120.9C55.4148 120.936 55.6363 121.003 55.8452 121.1C55.9493 121.166 56.0657 121.21 56.1874 121.23C56.3091 121.251 56.4336 121.246 56.5534 121.217C56.6733 121.188 56.786 121.135 56.885 121.061C56.9839 120.987 57.0669 120.894 57.1292 120.788C57.1914 120.682 57.2316 120.564 57.2472 120.441C57.2629 120.319 57.2537 120.195 57.2203 120.076C57.1869 119.957 57.1299 119.846 57.0527 119.75C56.9756 119.654 56.8798 119.574 56.7712 119.516C56.194 119.207 55.5499 119.045 54.8954 119.043C54.2409 119.042 53.5959 119.2 53.0172 119.506ZM30.6392 127.832C28.952 127.256 27.1618 127.046 25.3872 127.214C25.1519 127.225 24.9299 127.326 24.7673 127.497C24.6047 127.667 24.5139 127.893 24.5139 128.129C24.5139 128.365 24.6047 128.591 24.7673 128.761C24.9299 128.932 25.1519 129.033 25.3872 129.044C26.9958 128.873 28.6224 129.061 30.1492 129.596C30.3833 129.66 30.6333 129.629 30.8446 129.509C31.0558 129.39 31.2113 129.192 31.2772 128.958C31.3363 128.724 31.303 128.477 31.1841 128.267C31.0653 128.057 30.8701 127.901 30.6392 127.832ZM60.8632 130.16C60.0632 128.874 58.3332 129.012 57.0052 128.916C51.9252 128.516 46.5472 128.37 41.0052 128.47C40.7688 128.481 40.5458 128.583 40.3825 128.754C40.2192 128.925 40.128 129.152 40.128 129.389C40.128 129.626 40.2192 129.853 40.3825 130.024C40.5458 130.195 40.7688 130.297 41.0052 130.308C46.4952 130.207 51.9869 130.371 57.4612 130.798C57.8352 130.83 59.0612 130.722 59.2912 131.094C59.8972 132.084 61.4912 131.17 60.8632 130.16Z" fill="black"/>
<path d="M365.555 96.278C354.487 97.186 355.061 109.44 355.105 119.528C361.88 118.174 368.779 117.543 375.687 117.646C375.801 117.648 375.913 117.674 376.015 117.722C376.071 114.468 375.999 95.422 365.555 96.278ZM161.811 316.064C161.031 318.58 157.191 318.742 153.519 319.232C142.181 320.716 131.719 319.232 120.371 317.01C118.744 316.865 117.157 316.418 115.693 315.692C115.139 315.367 114.692 314.888 114.405 314.313C114.119 313.738 114.006 313.092 114.081 312.454C113.502 313.232 113.051 314.098 112.743 315.018C111.965 316.818 110.697 321.058 112.509 321.874C114.483 322.782 115.877 318.72 117.857 319.556C118.857 319.982 118.939 321.4 119.069 322.556C119.249 323.524 119.869 324.578 120.791 324.386C121.713 324.194 121.971 322.96 122.811 322.568C123.043 322.501 123.286 322.482 123.525 322.511C123.764 322.54 123.996 322.617 124.205 322.736C124.414 322.856 124.597 323.017 124.742 323.209C124.888 323.401 124.994 323.62 125.053 323.854C125.251 324.812 125.24 325.802 125.021 326.756C124.621 330.114 125.421 335.486 128.679 335.506C130.197 335.506 131.825 334.106 131.793 331.03C131.753 329.658 131.409 329.596 130.709 328.616C128.481 325.476 132.477 323.03 133.835 326.096C134.561 327.736 133.825 331.608 133.435 333.348C133.035 335.288 132.035 337.018 133.467 338.164C134.119 338.515 134.851 338.689 135.591 338.671C136.332 338.652 137.054 338.441 137.687 338.058C140.431 336.612 138.645 334.346 137.613 332.458C137.261 331.816 137.04 331.109 136.965 330.38C136.89 329.651 136.963 328.915 137.177 328.214C137.401 327.524 137.901 326.8 138.623 326.78C138.947 326.794 139.262 326.881 139.547 327.034C143.977 329.022 143.041 330.434 143.121 332.946C143.163 333.946 143.651 335.082 144.641 335.242C145.863 335.442 146.713 333.956 146.681 332.724C146.623 330.494 145.297 329.202 147.649 326.502C148.544 325.317 149.774 324.429 151.179 323.952C151.781 323.788 152.422 323.844 152.986 324.108C153.551 324.373 154.003 324.83 154.261 325.398C154.685 326.696 153.569 328.76 154.889 329.672C155.971 330.408 158.089 329.342 158.289 327.418C158.355 326.818 158.109 325.836 158.225 325.088C158.341 324.34 159.117 323.536 159.825 323.868C160.367 324.11 160.495 324.812 160.611 325.398C160.727 325.984 161.079 326.672 161.675 326.652C161.731 326.646 161.787 326.634 161.839 326.614C162.413 326.456 162.605 325.626 162.615 324.966C162.671 319.09 162.903 317.278 161.811 316.064Z" fill="#BF8ABF"/>
<path d="M118.101 314.682C125.837 316.415 133.702 317.51 141.617 317.956C146.409 318.14 151.208 317.83 155.937 317.03C157.897 316.696 159.537 316.512 159.977 315.724C160.509 314.756 158.839 314.224 158.191 314.022C145.476 310.307 132.131 309.254 118.991 310.93C117.986 310.97 117.026 311.352 116.269 312.014C115.527 312.84 115.657 314.08 118.101 314.682Z" fill="#BF8ABF"/>
<path d="M321.754 305.036C315.636 289.654 305.892 276.724 302.226 260.288C300.172 251.088 299.408 243.002 293.902 235.328C279.045 243.313 261.785 245.603 245.36 241.768C245.235 243.612 245.206 245.461 245.274 247.308C245.374 276.646 248.526 291.032 250.504 314.594C251.462 325.194 250.78 335.814 251.812 346.394C251.857 348.554 252.641 350.633 254.034 352.284C261.306 359.546 266.95 340.694 268.194 336.412C273.794 317.142 270.046 298.15 271.756 280.942C271.66 281.119 271.509 281.26 271.326 281.343C271.143 281.426 270.938 281.446 270.742 281.4C270.546 281.355 270.37 281.246 270.242 281.091C270.114 280.936 270.041 280.743 270.034 280.542C270.386 270.774 276.834 262.82 279.434 253.678C279.499 253.444 279.654 253.245 279.865 253.126C280.077 253.006 280.327 252.975 280.562 253.04C280.796 253.105 280.995 253.26 281.114 253.472C281.234 253.684 281.265 253.934 281.2 254.168C279.846 258.286 278.164 262.288 276.17 266.136C276.312 266.005 276.461 265.881 276.616 265.766C281.176 273.57 285.609 281.451 289.916 289.408C296.146 300.88 303.116 312.066 308.34 324.046C310.062 328.002 311.104 332.882 315.14 335.208C318.754 337.304 324.208 336.858 325.654 332.36C328.346 323.906 324.93 313.022 321.754 305.036Z" fill="#339D7F"/>
<path d="M376.028 129.625C375.828 129.695 376.428 129.595 355.712 131.613C355.608 131.626 355.503 131.617 355.402 131.588C355.301 131.558 355.208 131.509 355.126 131.443L357.89 228.299C358.314 226.979 358.931 225.729 359.72 224.589C360.23 223.697 360.76 222.101 361.984 222.049C363.144 221.985 364.056 223.507 364.728 224.249C365.374 224.961 366.014 225.673 366.662 226.385C367.576 224.757 368.436 223.109 369.204 221.409C369.287 221.273 369.403 221.16 369.541 221.082C369.68 221.004 369.836 220.963 369.995 220.963C370.154 220.963 370.311 221.004 370.449 221.082C370.588 221.16 370.704 221.273 370.786 221.409C371.776 222.895 372.904 224.283 374.156 225.555C374.912 224.853 375.656 224.155 376.41 223.439C376.584 223.27 376.817 223.176 377.059 223.176C377.302 223.176 377.534 223.27 377.708 223.439C378.49 224.189 379.216 224.996 379.878 225.853L376.028 129.625ZM362.908 133.751C362.908 133.507 363.005 133.273 363.178 133.1C363.35 132.928 363.584 132.831 363.828 132.831C364.072 132.831 364.306 132.928 364.479 133.1C364.651 133.273 364.748 133.507 364.748 133.751C364.813 136.563 364.684 139.376 364.364 142.171C364.364 142.414 364.268 142.647 364.096 142.819C363.924 142.99 363.691 143.087 363.448 143.087C363.205 143.087 362.972 142.99 362.801 142.819C362.629 142.647 362.532 142.414 362.532 142.171C362.841 139.375 362.966 136.563 362.908 133.751ZM363.356 212.737C363.282 207.961 362.706 164.671 362.474 147.801C362.485 147.565 362.587 147.342 362.758 147.178C362.929 147.015 363.157 146.924 363.393 146.924C363.63 146.924 363.857 147.015 364.029 147.178C364.2 147.342 364.301 147.565 364.312 147.801C364.376 152.573 364.962 195.865 365.194 212.737C365.183 212.973 365.082 213.196 364.911 213.36C364.739 213.523 364.512 213.614 364.275 213.614C364.039 213.614 363.811 213.523 363.64 213.36C363.469 213.196 363.367 212.973 363.356 212.737ZM370.394 135.937C370.405 135.701 370.507 135.478 370.678 135.314C370.849 135.151 371.077 135.06 371.313 135.06C371.55 135.06 371.777 135.151 371.949 135.314C372.12 135.478 372.221 135.701 372.232 135.937V143.433C372.221 143.669 372.12 143.892 371.949 144.056C371.777 144.219 371.55 144.31 371.313 144.31C371.077 144.31 370.849 144.219 370.678 144.056C370.507 143.892 370.405 143.669 370.394 143.433V135.937ZM371.584 216.811L370.276 149.993C370.276 149.749 370.373 149.515 370.546 149.342C370.718 149.17 370.952 149.073 371.196 149.073C371.44 149.073 371.674 149.17 371.847 149.342C372.019 149.515 372.116 149.749 372.116 149.993L373.424 216.811C373.423 217.055 373.325 217.289 373.152 217.46C372.979 217.632 372.744 217.728 372.5 217.727C372.256 217.726 372.023 217.628 371.851 217.455C371.679 217.281 371.583 217.047 371.584 216.803V216.811ZM207.218 331.791C207.086 332.273 206.796 332.311 204.902 333.567C204.798 333.634 204.682 333.68 204.56 333.701C204.438 333.722 204.313 333.718 204.193 333.69C204.072 333.662 203.959 333.609 203.859 333.536C203.759 333.462 203.676 333.37 203.613 333.263C203.55 333.156 203.509 333.038 203.493 332.915C203.477 332.793 203.486 332.668 203.519 332.549C203.553 332.429 203.61 332.318 203.687 332.222C203.765 332.125 203.861 332.045 203.97 331.987C206.058 330.647 205.92 330.659 206.31 330.659C204.227 328.054 202.111 325.475 199.962 322.923C199.762 323.539 198.292 324.513 197.582 324.869C197.425 324.962 197.244 325.006 197.062 324.995C196.88 324.984 196.705 324.92 196.56 324.809C196.415 324.698 196.307 324.547 196.248 324.374C196.19 324.201 196.184 324.015 196.232 323.839C196.368 323.291 196.73 323.351 197.772 322.583C198.552 321.971 198.482 321.813 198.952 321.733C196.592 318.933 194.133 316.075 191.574 313.159C191.611 313.254 191.632 313.355 191.638 313.457C191.638 314.405 189.706 315.401 188.746 315.699C188.572 315.745 188.388 315.738 188.217 315.68C188.047 315.622 187.897 315.515 187.787 315.372C187.677 315.229 187.612 315.057 187.599 314.877C187.587 314.697 187.627 314.518 187.716 314.361C187.916 314.013 188.228 313.961 188.63 313.807C189.174 313.573 189.668 313.238 190.086 312.819C190.226 312.683 190.407 312.595 190.6 312.57C190.794 312.546 190.991 312.584 191.16 312.681C184.291 304.859 177.316 297.129 170.238 289.495C169.562 290.262 168.786 290.935 167.93 291.495C167.72 291.618 167.47 291.652 167.235 291.59C167 291.528 166.799 291.375 166.676 291.165C166.554 290.955 166.52 290.705 166.582 290.47C166.644 290.234 166.796 290.034 167.006 289.911C167.641 289.464 168.239 288.966 168.792 288.421C168.872 288.344 168.966 288.283 169.068 288.241C165.668 284.573 162.328 281.001 159.106 277.589C159.106 277.621 159.128 277.653 159.128 277.685C159.129 277.928 159.033 278.161 158.862 278.333C156.522 280.239 156.662 280.193 156.386 280.267C156.23 280.313 156.064 280.315 155.907 280.274C155.749 280.233 155.606 280.15 155.492 280.033C155.324 279.859 155.229 279.627 155.229 279.385C155.229 279.143 155.324 278.911 155.492 278.737C157.848 276.813 157.71 276.871 157.97 276.801C158.37 276.757 158.208 276.773 158.37 276.801C155.334 273.583 152.287 270.377 149.228 267.181C149.332 267.381 149.358 267.611 149.302 267.829C149.192 268.249 149.122 268.181 146.262 270.307C146.053 270.42 145.808 270.446 145.579 270.382C145.35 270.318 145.155 270.167 145.035 269.962C144.915 269.756 144.88 269.513 144.936 269.282C144.992 269.051 145.136 268.85 145.336 268.723C147.878 266.861 148.208 266.369 148.866 266.809C137.916 255.359 130.186 247.533 130.186 247.533C126.52 269.063 127.614 296.683 128.326 308.421C132.524 308.289 136.725 308.431 140.904 308.845L137.98 271.245L193.252 329.313L163.632 327.513C163.45 332.259 163.082 336.996 162.528 341.713L212.814 339.163C211.014 336.657 209.148 334.199 207.218 331.791ZM139.63 257.803C139.516 258.219 139.332 258.263 137.03 259.951C136.873 260.041 136.692 260.083 136.511 260.071C136.33 260.058 136.157 259.993 136.013 259.883C135.869 259.773 135.76 259.623 135.701 259.451C135.642 259.28 135.635 259.095 135.68 258.919C135.784 258.519 135.958 258.475 138.28 256.773C138.438 256.683 138.618 256.642 138.799 256.654C138.979 256.666 139.153 256.731 139.297 256.841C139.441 256.951 139.549 257.101 139.608 257.272C139.668 257.443 139.675 257.628 139.63 257.803ZM181.14 302.283C181.006 302.763 180.636 302.883 179.014 303.953C178.805 304.066 178.56 304.092 178.331 304.028C178.102 303.964 177.907 303.813 177.787 303.608C177.667 303.402 177.632 303.159 177.688 302.928C177.744 302.697 177.888 302.496 178.088 302.369C179.858 301.199 179.946 301.035 180.488 301.157C180.724 301.221 180.924 301.375 181.046 301.586C181.168 301.797 181.202 302.047 181.14 302.283ZM295.076 137.003C292.476 138.135 289.536 144.603 292.524 151.973C292.662 152.301 293.172 152.993 293.172 153.343C293.172 148.911 292.906 144.297 295.202 140.299C295.352 140.033 297.246 137.945 297.226 137.817C297 136.637 296.022 136.583 295.076 137.003Z" fill="#EDA966"/>
<path d="M276.56 161.802C276.422 161.824 276.286 161.854 276.146 161.876C275.42 162.012 274.67 161.944 273.98 161.68C273.289 161.415 272.686 160.965 272.236 160.378C268.09 160.067 263.921 160.473 259.912 161.578C252.576 163.178 244.826 169.264 237.236 166.796C226.522 163.312 218.898 149.542 218.366 137.434C218.452 134.582 218.682 131.737 219.056 128.908C219.227 127.655 218.915 126.384 218.182 125.353C217.45 124.322 216.352 123.609 215.112 123.358L205.216 121.316C203.864 121.04 201.462 136.222 201.366 137.2C198.9 163.782 216.018 186.244 235.258 190.144C238.31 190.76 242.52 190.132 245.082 192.206C249.844 196.054 243.626 210.006 242.838 214.724C241.5 222.708 238.608 231.648 238.608 239.738C240.795 240.58 243.04 241.258 245.326 241.768C262.407 245.76 280.366 243.128 295.582 234.402C295.6 234.402 296.846 172.532 276.56 161.802ZM207.936 141.282C207.882 141.482 207.78 141.54 207.436 141.882C207.262 142.042 207.032 142.128 206.796 142.123C206.56 142.117 206.334 142.021 206.167 141.853C206 141.686 205.904 141.461 205.899 141.224C205.894 140.988 205.98 140.758 206.14 140.584C206.446 140.278 206.558 140.122 206.852 140.044C206.971 140.011 207.096 140.003 207.218 140.019C207.34 140.035 207.458 140.076 207.564 140.138C207.757 140.249 207.901 140.428 207.97 140.639C208.038 140.85 208.026 141.079 207.936 141.282ZM214.272 159.95C214.028 159.95 213.794 159.853 213.622 159.681C213.449 159.508 213.352 159.274 213.352 159.03C213.352 158.786 213.449 158.552 213.622 158.38C213.794 158.207 214.028 158.11 214.272 158.11C214.516 158.11 214.75 158.207 214.923 158.38C215.095 158.552 215.192 158.786 215.192 159.03C215.192 159.274 215.095 159.508 214.923 159.681C214.75 159.853 214.516 159.95 214.272 159.95ZM215.198 131.874C215.198 132.117 215.102 132.349 214.932 132.522C214.804 132.649 214.64 132.734 214.463 132.768C214.286 132.803 214.103 132.784 213.936 132.715C213.769 132.646 213.627 132.53 213.526 132.38C213.425 132.231 213.37 132.055 213.368 131.874C213.329 131.608 213.374 131.337 213.498 131.098C213.583 130.951 213.708 130.832 213.858 130.752C214.008 130.673 214.177 130.637 214.347 130.649C214.516 130.661 214.678 130.721 214.815 130.821C214.953 130.92 215.059 131.057 215.122 131.214C215.222 131.414 215.2 131.496 215.2 131.874H215.198ZM234.568 173.378C234.332 173.367 234.109 173.266 233.946 173.094C233.782 172.923 233.691 172.696 233.691 172.459C233.691 172.223 233.782 171.995 233.946 171.824C234.109 171.653 234.332 171.551 234.568 171.54C234.805 171.551 235.028 171.653 235.191 171.824C235.354 171.995 235.445 172.223 235.445 172.459C235.445 172.696 235.354 172.923 235.191 173.094C235.028 173.266 234.805 173.367 234.568 173.378ZM243.626 183.36C243.39 183.349 243.167 183.248 243.004 183.076C242.84 182.905 242.749 182.678 242.749 182.441C242.749 182.205 242.84 181.977 243.004 181.806C243.167 181.635 243.39 181.533 243.626 181.522C243.863 181.533 244.086 181.635 244.249 181.806C244.412 181.977 244.503 182.205 244.503 182.441C244.503 182.678 244.412 182.905 244.249 183.076C244.086 183.248 243.863 183.349 243.626 183.36ZM248 234.254C247.524 234.254 247.438 234.296 247.044 233.988C246.919 233.859 246.834 233.696 246.8 233.519C246.767 233.342 246.785 233.16 246.854 232.993C246.923 232.827 247.039 232.684 247.188 232.583C247.337 232.482 247.512 232.427 247.692 232.424C247.958 232.385 248.229 232.43 248.468 232.552C248.64 232.655 248.774 232.811 248.848 232.997C248.923 233.183 248.934 233.388 248.881 233.581C248.828 233.774 248.713 233.944 248.554 234.066C248.395 234.188 248.201 234.254 248 234.254ZM252.37 220.208C252.201 220.24 252.027 220.233 251.861 220.187C251.695 220.141 251.542 220.057 251.414 219.942C251.289 219.813 251.204 219.65 251.17 219.474C251.136 219.297 251.154 219.114 251.223 218.948C251.292 218.781 251.409 218.639 251.558 218.538C251.707 218.437 251.882 218.382 252.062 218.38C252.329 218.341 252.601 218.386 252.84 218.508C253.009 218.613 253.139 218.77 253.211 218.955C253.283 219.14 253.292 219.343 253.239 219.534C253.185 219.725 253.071 219.894 252.913 220.014C252.755 220.135 252.563 220.201 252.364 220.202L252.37 220.208ZM256.432 192.418C256.188 192.418 255.954 192.321 255.782 192.149C255.609 191.976 255.512 191.742 255.512 191.498C255.512 191.254 255.609 191.02 255.782 190.848C255.954 190.675 256.188 190.578 256.432 190.578C256.676 190.579 256.91 190.677 257.082 190.85C257.254 191.023 257.35 191.257 257.349 191.501C257.349 191.745 257.251 191.979 257.078 192.151C256.905 192.323 256.67 192.419 256.426 192.418H256.432ZM260.8 172.122C260.564 172.111 260.341 172.01 260.178 171.838C260.014 171.667 259.923 171.44 259.923 171.203C259.923 170.967 260.014 170.739 260.178 170.568C260.341 170.397 260.564 170.295 260.8 170.284C261.037 170.295 261.26 170.397 261.423 170.568C261.586 170.739 261.677 170.967 261.677 171.203C261.677 171.44 261.586 171.667 261.423 171.838C261.26 172.01 261.037 172.111 260.8 172.122ZM265.776 199.616C265.776 199.859 265.68 200.091 265.509 200.263C265.337 200.434 265.105 200.53 264.862 200.53C264.62 200.53 264.387 200.434 264.216 200.263C264.045 200.091 263.948 199.859 263.948 199.616C263.909 199.351 263.954 199.079 264.076 198.84C264.162 198.694 264.287 198.574 264.437 198.494C264.587 198.415 264.756 198.38 264.925 198.392C265.095 198.404 265.257 198.463 265.395 198.563C265.532 198.663 265.639 198.799 265.702 198.956C265.8 199.158 265.77 199.262 265.77 199.616H265.776ZM268.296 228.64C268.127 228.67 267.954 228.661 267.788 228.615C267.623 228.569 267.47 228.487 267.34 228.374C267.215 228.245 267.13 228.082 267.096 227.906C267.062 227.729 267.081 227.546 267.149 227.38C267.218 227.213 267.335 227.071 267.484 226.97C267.633 226.869 267.808 226.814 267.988 226.812C268.254 226.774 268.525 226.818 268.764 226.938C268.937 227.041 269.07 227.198 269.145 227.384C269.219 227.571 269.23 227.777 269.176 227.97C269.123 228.163 269.007 228.334 268.847 228.455C268.686 228.576 268.491 228.641 268.29 228.64H268.296ZM272.666 217.71C272.43 217.699 272.207 217.598 272.044 217.426C271.88 217.255 271.789 217.028 271.789 216.791C271.789 216.555 271.88 216.327 272.044 216.156C272.207 215.985 272.43 215.883 272.666 215.872C272.903 215.884 273.125 215.986 273.288 216.158C273.451 216.33 273.541 216.557 273.541 216.794C273.54 217.031 273.448 217.258 273.284 217.428C273.12 217.599 272.897 217.7 272.66 217.71H272.666ZM275.466 174.002C275.222 174.002 274.988 173.905 274.816 173.733C274.643 173.56 274.546 173.326 274.546 173.082C274.546 172.838 274.643 172.604 274.816 172.432C274.988 172.259 275.222 172.162 275.466 172.162C275.71 172.162 275.944 172.259 276.117 172.432C276.289 172.604 276.386 172.838 276.386 173.082C276.386 173.326 276.289 173.56 276.117 173.733C275.944 173.905 275.71 174.002 275.466 174.002ZM283.568 194.628C283.567 194.871 283.472 195.103 283.302 195.276C283.174 195.403 283.01 195.488 282.833 195.522C282.656 195.557 282.473 195.538 282.306 195.469C282.139 195.4 281.997 195.284 281.896 195.134C281.795 194.985 281.74 194.809 281.738 194.628C281.699 194.363 281.744 194.091 281.866 193.852C281.952 193.706 282.077 193.586 282.227 193.507C282.377 193.427 282.546 193.392 282.715 193.404C282.885 193.416 283.047 193.475 283.185 193.575C283.322 193.675 283.429 193.811 283.492 193.968C283.6 194.164 283.568 194.266 283.568 194.62V194.628ZM285.46 227.7C285.224 227.689 285.001 227.588 284.838 227.416C284.674 227.245 284.583 227.018 284.583 226.781C284.583 226.545 284.674 226.317 284.838 226.146C285.001 225.975 285.224 225.873 285.46 225.862C285.687 225.886 285.896 225.993 286.048 226.161C286.2 226.33 286.285 226.55 286.285 226.777C286.285 227.005 286.2 227.224 286.048 227.393C285.896 227.562 285.687 227.669 285.46 227.692V227.7Z" fill="#DD6688"/>
<path d="M367.501 250.748C368.197 251.994 370.049 252.84 370.575 251.312C380.155 223.16 382.575 228.688 377.687 223.448C377.513 223.28 377.281 223.185 377.039 223.185C376.797 223.185 376.564 223.28 376.391 223.448C375.635 224.15 374.891 224.848 374.137 225.562C372.884 224.291 371.755 222.903 370.767 221.416C370.684 221.28 370.568 221.168 370.429 221.089C370.291 221.011 370.134 220.97 369.975 220.97C369.816 220.97 369.659 221.011 369.52 221.089C369.382 221.168 369.265 221.28 369.183 221.416C368.41 223.112 367.562 224.772 366.641 226.392C365.993 225.68 365.355 224.968 364.707 224.256C364.037 223.512 363.121 221.99 361.963 222.056C360.741 222.12 360.209 223.704 359.699 224.598C357.699 228.112 357.299 228.132 358.583 231.358C361.22 237.971 364.196 244.443 367.501 250.748ZM359.817 229.444C359.357 228.008 360.735 226.658 362.133 224.128C362.303 224.354 365.965 228.364 366.183 228.604C366.282 228.702 366.403 228.775 366.535 228.819C366.667 228.864 366.807 228.878 366.945 228.86C367.083 228.843 367.215 228.794 367.332 228.718C367.449 228.643 367.547 228.541 367.619 228.422C368.533 226.882 369.353 225.298 370.127 223.682C371.133 225.044 372.25 226.321 373.467 227.498C373.642 227.665 373.874 227.757 374.115 227.757C374.356 227.757 374.588 227.665 374.763 227.498L376.995 225.404C378.753 227.244 378.635 226.242 376.645 230.74C374.045 236.618 373.153 239.14 372.445 240.926L365.225 242.02C363.923 239.254 360.491 231.548 359.817 229.444ZM355.351 121.334C362.041 119.986 368.855 119.358 375.679 119.462C375.887 119.453 376.085 119.373 376.242 119.236C376.399 119.099 376.505 118.913 376.542 118.709C376.579 118.504 376.546 118.292 376.448 118.109C376.35 117.925 376.192 117.781 376.001 117.698C375.117 117.298 364.305 117.682 355.089 119.498C355.005 119.518 354.929 119.528 354.845 119.54C353.713 119.798 354.201 121.566 355.351 121.334ZM355.775 126.16C360.883 126.84 364.089 124.38 375.529 123.736C376.699 123.672 376.709 121.834 375.529 121.898C363.783 122.546 360.869 125.026 356.265 124.396C356.034 124.341 355.791 124.378 355.587 124.498C355.382 124.619 355.233 124.814 355.169 125.042C355.106 125.271 355.133 125.515 355.246 125.723C355.359 125.932 355.549 126.089 355.775 126.16ZM355.713 129.774C354.545 129.886 354.563 131.704 355.713 131.608C368.635 130.348 376.231 129.55 376.029 129.62C377.157 129.472 377.155 127.68 375.997 127.786C369.234 128.469 362.473 129.132 355.713 129.774ZM363.453 143.08C363.693 143.075 363.922 142.977 364.092 142.806C364.262 142.636 364.36 142.407 364.365 142.166C364.674 139.371 364.802 136.558 364.749 133.746C364.749 133.502 364.652 133.268 364.479 133.096C364.307 132.923 364.073 132.826 363.829 132.826C363.585 132.826 363.351 132.923 363.178 133.096C363.006 133.268 362.909 133.502 362.909 133.746C362.976 136.558 362.85 139.372 362.533 142.166C362.536 142.409 362.634 142.64 362.806 142.811C362.978 142.982 363.21 143.079 363.453 143.08ZM363.357 212.732C363.368 212.969 363.47 213.192 363.641 213.355C363.812 213.518 364.039 213.61 364.276 213.61C364.512 213.61 364.74 213.518 364.911 213.355C365.082 213.192 365.184 212.969 365.195 212.732C364.961 195.86 364.377 152.58 364.313 147.796C364.302 147.56 364.2 147.337 364.029 147.174C363.858 147.01 363.63 146.919 363.394 146.919C363.157 146.919 362.93 147.01 362.759 147.174C362.588 147.337 362.486 147.56 362.475 147.796C362.801 172.374 362.585 155.724 363.357 212.732ZM372.233 143.42V135.924C372.222 135.688 372.12 135.465 371.949 135.302C371.778 135.138 371.55 135.047 371.314 135.047C371.077 135.047 370.85 135.138 370.679 135.302C370.508 135.465 370.406 135.688 370.395 135.924V143.42C370.406 143.657 370.508 143.88 370.679 144.043C370.85 144.206 371.077 144.298 371.314 144.298C371.55 144.298 371.778 144.206 371.949 144.043C372.12 143.88 372.222 143.657 372.233 143.42ZM371.585 216.798C371.585 217.042 371.682 217.276 371.854 217.449C372.027 217.621 372.261 217.718 372.505 217.718C372.749 217.718 372.983 217.621 373.155 217.449C373.328 217.276 373.425 217.042 373.425 216.798L372.117 149.98C372.117 149.736 372.02 149.502 371.847 149.33C371.675 149.157 371.441 149.06 371.197 149.06C370.953 149.06 370.719 149.157 370.546 149.33C370.374 149.502 370.277 149.736 370.277 149.98L371.585 216.798ZM162.653 318.964C162.653 318.964 162.621 323.26 162.599 324.964C162.589 325.614 162.399 326.454 161.823 326.612C161.823 326.856 161.755 328.246 161.733 328.692C161.643 328.787 161.575 328.899 161.533 329.022C160.356 332.796 158.405 336.282 155.804 339.259C153.203 342.235 150.009 344.635 146.427 346.306C133.789 351.578 120.333 344.296 119.227 331.37C119.576 330.731 119.658 329.979 119.457 329.279C119.256 328.579 118.788 327.986 118.153 327.628C116.639 326.768 114.693 327.676 114.177 329.924C114.044 327.596 113.984 325.268 113.997 322.94C113.997 322.698 113.901 322.466 113.729 322.294C113.558 322.123 113.325 322.026 113.083 322.026C112.84 322.026 112.608 322.123 112.437 322.294C112.265 322.466 112.169 322.698 112.169 322.94C112.138 330.98 112.9 339.003 114.443 346.892C115.155 350.743 116.143 354.537 117.399 358.246C118.303 359.846 120.199 360.118 121.821 360.5C131.476 362.754 141.408 363.582 151.303 362.956C155.887 362.656 158.791 362.998 159.659 359.034C162.414 346.15 163.793 333.01 163.773 319.834C163.777 319.696 163.748 319.559 163.69 319.434C163.631 319.309 163.543 319.2 163.434 319.115C163.325 319.03 163.197 318.972 163.061 318.946C162.926 318.92 162.786 318.926 162.653 318.964ZM116.497 329.364C116.604 329.241 116.755 329.164 116.918 329.151C117.081 329.137 117.242 329.187 117.369 329.29C117.48 329.369 117.574 329.47 117.643 329.587C117.712 329.704 117.755 329.835 117.769 329.97C117.653 330.033 117.555 330.125 117.485 330.237C117.415 330.349 117.375 330.477 117.369 330.608C117.001 330.798 115.601 330.246 116.497 329.356V329.364ZM157.651 359.482C157.067 361.056 154.707 360.854 153.335 360.972C145.858 361.617 138.333 361.41 130.903 360.354C127.272 359.854 123.675 359.13 120.133 358.186C119.779 358.074 119.461 357.871 119.21 357.599C118.958 357.327 118.781 356.994 118.697 356.632C116.429 348.798 114.976 340.751 114.361 332.618C114.472 332.743 114.616 332.834 114.777 332.88C114.937 332.927 115.107 332.927 115.268 332.881C115.429 332.836 115.573 332.746 115.685 332.622C115.797 332.498 115.872 332.345 115.901 332.18C116.399 332.416 116.954 332.506 117.501 332.438C118.042 336.368 119.727 340.051 122.347 343.028C124.968 346.006 128.406 348.146 132.235 349.182C142.523 351.844 154.939 346.93 161.407 334.042C160.794 342.602 159.538 351.103 157.651 359.474V359.482Z" fill="black"/>
<path d="M115.696 315.692C117.161 316.415 118.747 316.862 120.374 317.01C131.668 319.21 142.174 320.726 153.522 319.232C156.598 318.82 160.97 318.672 161.814 316.064C161.955 315.64 161.968 315.184 161.852 314.752C161.573 314.108 161.139 313.543 160.587 313.109C160.036 312.675 159.385 312.384 158.694 312.264C146.707 308.754 134.158 307.578 121.728 308.8C120.083 308.838 118.45 309.088 116.87 309.544C113.496 310.824 113.294 314.122 115.696 315.692ZM115.914 312.704C116.15 311.504 117.762 311.082 118.986 310.93C132.126 309.25 145.472 310.303 158.186 314.022C158.834 314.222 160.504 314.756 159.972 315.724C159.774 315.971 159.528 316.175 159.248 316.323C158.968 316.471 158.661 316.56 158.346 316.584C154.398 317.387 150.39 317.856 146.364 317.984C136.85 317.911 127.371 316.806 118.096 314.688C117.202 314.448 115.674 313.928 115.914 312.704ZM136.336 260.048C136.908 260.18 136.848 260.092 139.206 258.358C139.416 258.236 139.569 258.035 139.63 257.8C139.692 257.564 139.658 257.314 139.536 257.104C139.413 256.894 139.212 256.741 138.977 256.68C138.742 256.618 138.492 256.652 138.282 256.774C135.882 258.546 135.806 258.514 135.682 258.92C135.621 259.156 135.656 259.407 135.778 259.618C135.9 259.829 136.101 259.984 136.336 260.048ZM146.256 270.248C147.126 269.612 147.998 268.971 148.87 268.324C149.067 268.196 149.208 267.996 149.262 267.767C149.317 267.537 149.281 267.296 149.162 267.092C149.043 266.889 148.851 266.739 148.624 266.673C148.398 266.608 148.155 266.632 147.946 266.74C145.01 268.888 145.02 268.824 144.906 269.216C144.861 269.392 144.869 269.576 144.929 269.747C144.988 269.918 145.096 270.068 145.24 270.178C145.384 270.288 145.557 270.353 145.737 270.366C145.918 270.378 146.098 270.337 146.256 270.248ZM156.142 280.262C156.656 280.198 156.32 280.374 158.864 278.296C158.962 278.201 159.035 278.084 159.078 277.954C159.12 277.825 159.131 277.687 159.108 277.552C159.089 277.383 159.023 277.222 158.917 277.088C158.811 276.954 158.669 276.853 158.509 276.796C158.348 276.738 158.175 276.727 158.008 276.763C157.841 276.799 157.688 276.881 157.566 277C156.876 277.562 156.184 278.136 155.494 278.7C155.368 278.829 155.283 278.992 155.249 279.169C155.215 279.346 155.234 279.529 155.303 279.695C155.372 279.861 155.488 280.004 155.637 280.104C155.786 280.205 155.962 280.26 156.142 280.262ZM169.442 288.12C168.682 288.17 168.718 288.708 167.008 289.874C166.798 289.997 166.645 290.198 166.583 290.433C166.521 290.668 166.555 290.918 166.678 291.128C166.8 291.338 167.001 291.491 167.236 291.553C167.472 291.615 167.722 291.581 167.932 291.458C168.786 290.897 169.563 290.224 170.24 289.458C170.319 289.321 170.359 289.165 170.358 289.006C170.357 288.848 170.313 288.692 170.232 288.556C170.151 288.42 170.035 288.308 169.896 288.231C169.757 288.155 169.6 288.116 169.442 288.12ZM180.494 301.154C179.966 301.034 179.918 301.154 178.094 302.366C177.893 302.494 177.749 302.694 177.693 302.925C177.637 303.156 177.673 303.4 177.793 303.605C177.913 303.81 178.108 303.961 178.337 304.025C178.565 304.09 178.81 304.063 179.02 303.95C180.512 302.964 181.02 302.766 181.146 302.28C181.208 302.045 181.174 301.794 181.052 301.583C180.929 301.372 180.729 301.218 180.494 301.154ZM191.152 312.656C190.982 312.56 190.785 312.521 190.591 312.547C190.398 312.572 190.217 312.659 190.078 312.796C189.658 313.213 189.164 313.548 188.622 313.784C188.222 313.926 187.918 313.984 187.706 314.336C187.617 314.493 187.576 314.673 187.589 314.853C187.602 315.033 187.667 315.205 187.777 315.348C187.888 315.491 188.037 315.599 188.208 315.657C188.379 315.715 188.563 315.722 188.738 315.676C189.731 315.366 190.633 314.817 191.364 314.076C191.462 313.977 191.535 313.857 191.578 313.724C191.621 313.592 191.633 313.451 191.612 313.313C191.592 313.176 191.539 313.045 191.46 312.93C191.38 312.816 191.274 312.723 191.152 312.656ZM199.114 321.694C199.059 321.701 199.006 321.714 198.954 321.73C198.314 321.848 198.274 322.46 196.658 323.282C196.549 323.341 196.453 323.42 196.376 323.516C196.299 323.613 196.242 323.723 196.209 323.842C196.175 323.961 196.166 324.085 196.182 324.208C196.197 324.33 196.238 324.448 196.3 324.554C196.362 324.661 196.445 324.754 196.544 324.827C196.643 324.901 196.756 324.954 196.876 324.983C196.995 325.012 197.12 325.017 197.242 324.997C197.363 324.977 197.48 324.932 197.584 324.866C198.266 324.526 199.76 323.54 199.964 322.92C200.017 322.783 200.035 322.635 200.018 322.489C200 322.343 199.947 322.203 199.863 322.082C199.779 321.961 199.667 321.863 199.537 321.795C199.406 321.728 199.261 321.693 199.114 321.694ZM204.904 333.564C206.904 332.274 207.104 332.234 207.22 331.788C207.267 331.611 207.261 331.425 207.202 331.251C207.144 331.078 207.035 330.926 206.89 330.814C206.745 330.702 206.57 330.635 206.388 330.623C206.205 330.61 206.023 330.652 205.864 330.742C203.876 332.02 203.664 332.068 203.548 332.516C203.505 332.692 203.514 332.877 203.574 333.048C203.634 333.22 203.742 333.37 203.886 333.481C204.029 333.591 204.202 333.658 204.382 333.673C204.563 333.688 204.744 333.65 204.904 333.564ZM355.402 254.482H348.942C348.818 254.476 348.694 254.496 348.578 254.539C348.462 254.583 348.356 254.649 348.267 254.735C348.177 254.82 348.106 254.923 348.057 255.037C348.008 255.151 347.983 255.273 347.983 255.397C347.983 255.521 348.008 255.644 348.057 255.758C348.106 255.872 348.177 255.974 348.267 256.06C348.356 256.145 348.462 256.212 348.578 256.255C348.694 256.299 348.818 256.318 348.942 256.312H355.402C355.637 256.301 355.859 256.2 356.022 256.03C356.184 255.859 356.275 255.633 356.275 255.397C356.275 255.162 356.184 254.935 356.022 254.765C355.859 254.594 355.637 254.493 355.402 254.482ZM358.978 250.698C356.484 250.307 353.964 250.107 351.44 250.098C351.203 250.109 350.98 250.211 350.817 250.382C350.654 250.553 350.563 250.781 350.563 251.017C350.563 251.254 350.654 251.481 350.817 251.652C350.98 251.824 351.203 251.925 351.44 251.936C358.022 251.936 359.25 253.192 359.616 251.84C359.649 251.723 359.659 251.601 359.645 251.48C359.631 251.36 359.593 251.243 359.534 251.137C359.474 251.031 359.395 250.938 359.299 250.862C359.204 250.787 359.095 250.731 358.978 250.698ZM380.58 254.142C375.094 253.997 369.612 253.844 364.132 253.684C363.888 253.684 363.654 253.781 363.481 253.954C363.309 254.126 363.212 254.36 363.212 254.604C363.212 254.848 363.309 255.082 363.481 255.255C363.654 255.427 363.888 255.524 364.132 255.524C369.617 255.672 375.1 255.824 380.58 255.98C380.816 255.969 381.039 255.868 381.202 255.696C381.366 255.525 381.457 255.298 381.457 255.061C381.457 254.825 381.366 254.597 381.202 254.426C381.039 254.255 380.816 254.153 380.58 254.142ZM389.116 251.898L378.082 251.484C376.902 251.442 376.902 253.27 378.082 253.324L389.116 253.736C390.296 253.78 390.296 251.942 389.116 251.898ZM215.202 356.988H204.902C204.658 356.988 204.424 357.085 204.251 357.258C204.079 357.43 203.982 357.664 203.982 357.908C203.982 358.152 204.079 358.386 204.251 358.559C204.424 358.731 204.658 358.828 204.902 358.828H215.202C215.446 358.828 215.68 358.731 215.852 358.559C216.025 358.386 216.122 358.152 216.122 357.908C216.122 357.664 216.025 357.43 215.852 357.258C215.68 357.085 215.446 356.988 215.202 356.988ZM238.62 354.32C233.006 354.144 227.384 353.92 221.768 353.72C220.59 353.676 220.59 355.52 221.768 355.558C227.384 355.76 233.001 355.96 238.62 356.158C238.856 356.147 239.079 356.046 239.242 355.874C239.406 355.703 239.497 355.476 239.497 355.239C239.497 355.003 239.406 354.775 239.242 354.604C239.079 354.433 238.856 354.331 238.62 354.32ZM232.55 350.302C232.307 350.302 232.075 350.399 231.903 350.57C231.732 350.741 231.636 350.974 231.636 351.216C231.64 351.458 231.737 351.688 231.908 351.859C232.078 352.03 232.308 352.128 232.55 352.132C235.048 352.322 237.536 352.512 240.034 352.716C240.154 352.716 240.273 352.693 240.384 352.646C240.495 352.6 240.596 352.533 240.681 352.448C240.766 352.363 240.833 352.262 240.879 352.151C240.925 352.04 240.948 351.92 240.948 351.8C240.944 351.559 240.847 351.329 240.676 351.159C240.505 350.988 240.275 350.891 240.034 350.888C237.536 350.694 235.048 350.508 232.55 350.302ZM292.956 356.542C286.074 356.327 279.187 356.65 272.356 357.51C271.198 357.658 271.188 359.498 272.356 359.35C279.186 358.481 286.074 358.157 292.956 358.382C294.136 358.414 294.126 356.578 292.956 356.542ZM292.02 360.732H283.122C282.885 360.743 282.662 360.845 282.499 361.016C282.336 361.187 282.245 361.415 282.245 361.651C282.245 361.888 282.336 362.115 282.499 362.286C282.662 362.458 282.885 362.559 283.122 362.57H292.02C292.256 362.559 292.479 362.458 292.642 362.286C292.806 362.115 292.897 361.888 292.897 361.651C292.897 361.415 292.806 361.187 292.642 361.016C292.479 360.845 292.256 360.743 292.02 360.732ZM225.022 128.586C226.722 131.216 229.354 130.186 229.902 127.066C230.522 123.624 228.684 121.302 227.934 119.614C227.167 118.171 226.807 116.546 226.894 114.914C227.064 113.66 228.128 113.192 229.232 112.862C233.232 111.678 241.156 111.982 242.32 108.366C243.224 105.602 239.72 104.284 237.642 104.06C234.839 103.946 232.046 104.473 229.478 105.602C227.424 102.064 224.138 99.4303 220.078 100.106C210.99 101.6 205.6 111.452 208.15 116.906C209.8 120.416 214.762 121.468 218.494 122.706C224.922 124.826 223.644 126.45 225.022 128.586ZM214.488 119.444C210.25 117.89 208.548 115.998 209.688 111.512C210.413 109.144 211.754 107.01 213.573 105.329C215.393 103.649 217.626 102.48 220.044 101.944C220.002 101.966 219.96 101.976 219.918 101.998C219.814 102.059 219.723 102.139 219.65 102.235C219.577 102.331 219.523 102.44 219.493 102.557C219.462 102.673 219.455 102.795 219.471 102.914C219.487 103.033 219.527 103.148 219.588 103.252C219.714 103.458 219.915 103.607 220.149 103.668C220.382 103.73 220.63 103.699 220.842 103.582C222.98 102.632 223.732 103.144 224.286 102.624C224.617 102.829 224.933 103.057 225.232 103.306C224.066 103.474 222.948 103.883 221.948 104.506C221.738 104.629 221.585 104.83 221.523 105.065C221.461 105.3 221.495 105.55 221.618 105.76C221.74 105.97 221.941 106.123 222.176 106.185C222.412 106.247 222.662 106.213 222.872 106.09C225.102 104.69 226.256 105.364 226.54 104.656C227.208 105.423 227.779 106.269 228.242 107.174C228.344 107.347 228.5 107.483 228.686 107.56C228.871 107.636 229.077 107.651 229.272 107.6C231.488 106.645 233.842 106.05 236.246 105.836C237.597 105.701 238.953 106.027 240.096 106.76C240.682 107.234 240.696 107.692 240.426 108.058C239.434 108.969 238.168 109.526 236.826 109.642C231.672 110.786 225.6 110.318 225.046 114.744C224.972 117.695 225.872 120.587 227.608 122.974C228.131 124.159 228.293 125.472 228.076 126.748C227.784 128.082 227.358 128.696 226.676 127.81C226.297 127.23 226.007 126.595 225.816 125.928C224.298 121.866 219.402 121.248 214.488 119.444Z" fill="black"/>
<path d="M246.399 117.84C246.269 119.084 245.273 119.594 244.177 119.944C240.217 121.23 232.355 121.144 231.143 124.686C230.195 127.472 233.725 128.78 235.831 128.97C238.659 129.026 241.464 128.437 244.031 127.248C246.155 130.704 249.481 133.266 253.491 132.542C262.279 130.966 267.785 121.17 265.153 115.576C263.513 112.064 258.469 111.06 254.693 109.92C248.293 107.996 249.411 106.458 248.047 104.296C245.397 100.096 241.159 104.732 243.891 110.76C245.471 112.786 246.351 115.271 246.399 117.84ZM244.909 106.018C245.003 105.518 245.223 104.444 245.729 104.508C246.517 104.608 246.623 105.39 247.217 106.908C250.161 114.508 266.373 109.966 263.617 121.038C262.095 127.224 255.135 131.198 251.467 130.838C248.867 130.588 246.393 127.92 245.183 125.638C245.079 125.466 244.923 125.331 244.737 125.255C244.551 125.178 244.345 125.164 244.151 125.214C241.947 126.225 239.596 126.878 237.187 127.148C235.834 127.315 234.464 127.011 233.309 126.288C232.689 125.788 232.709 125.4 233.011 124.948C234.157 123.446 238.041 123.03 241.823 122.348C244.471 121.87 247.841 121.168 248.191 117.978C248.204 115.025 247.24 112.15 245.449 109.802C244.893 108.623 244.702 107.306 244.899 106.018H244.909Z" fill="black"/>
<path d="M244.912 124.058C244.35 125.1 245.932 126.024 246.496 124.982C248.364 121.556 251.764 119.634 252.384 120.4C252.65 120.72 252.142 121.474 251.984 121.782C251.413 122.838 250.686 123.802 249.828 124.642C248.976 125.482 250.242 126.694 251.124 125.94C251.947 125.235 252.858 124.642 253.836 124.174C254.506 123.856 255.802 123.164 256.418 123.898C256.595 124.156 256.702 124.455 256.728 124.766C256.754 125.078 256.699 125.391 256.568 125.674C256.061 126.575 255.333 127.332 254.452 127.874C254.251 128.001 254.107 128.202 254.051 128.433C253.995 128.664 254.031 128.908 254.151 129.113C254.271 129.318 254.466 129.469 254.695 129.533C254.924 129.598 255.168 129.571 255.378 129.458C256.644 128.675 257.664 127.552 258.322 126.216C258.548 125.638 258.619 125.012 258.528 124.398C258.437 123.784 258.187 123.205 257.802 122.718C257.284 122.21 256.614 121.885 255.894 121.793C255.174 121.701 254.443 121.847 253.814 122.208C253.858 122.112 253.92 122.008 253.964 121.92C254.187 121.576 254.313 121.177 254.327 120.767C254.341 120.356 254.244 119.95 254.045 119.591C253.846 119.231 253.553 118.933 253.198 118.727C252.843 118.521 252.438 118.416 252.028 118.422C250.429 118.588 248.941 119.315 247.828 120.474C246.636 121.472 245.647 122.689 244.912 124.058ZM310.272 142.4C310.932 141.751 311.425 140.953 311.71 140.072C311.995 139.192 312.064 138.256 311.91 137.343C311.756 136.431 311.383 135.569 310.825 134.831C310.267 134.093 309.538 133.501 308.702 133.105C307.866 132.708 306.946 132.52 306.022 132.555C305.097 132.59 304.194 132.848 303.391 133.306C302.587 133.765 301.905 134.411 301.405 135.189C300.904 135.967 300.598 136.855 300.514 137.776C300.316 137.53 300.064 137.332 299.779 137.196C299.493 137.061 299.181 136.992 298.865 136.994C298.548 136.996 298.237 137.069 297.953 137.209C297.669 137.348 297.421 137.549 297.226 137.798C297.246 137.926 295.364 140.014 295.202 140.28C292.906 144.266 293.172 148.88 293.172 153.324C293.172 152.964 292.652 152.282 292.524 151.954C291.651 149.969 291.221 147.817 291.263 145.649C291.305 143.481 291.819 141.348 292.768 139.398C293.215 138.338 294.037 137.479 295.076 136.984C296.022 136.584 296.99 136.618 297.226 137.798C297.173 135.607 296.674 133.45 295.759 131.458C294.844 129.467 293.533 127.683 291.905 126.215C290.278 124.747 288.368 123.627 286.293 122.922C284.218 122.217 282.021 121.943 279.836 122.116C279.268 122.083 278.699 122.173 278.169 122.38C277.638 122.587 277.159 122.906 276.764 123.316C268.306 122.648 258.148 131.76 255.564 139.932C252.74 148.9 258.228 156.732 266.248 157.282C267.684 159.04 270.142 158.53 271.81 156.846C271.569 158.04 271.718 159.28 272.236 160.382C272.686 160.969 273.289 161.419 273.979 161.684C274.669 161.948 275.419 162.016 276.146 161.88C276.286 161.88 276.424 161.828 276.56 161.806C277.682 161.612 278.746 161.163 279.669 160.495C280.592 159.827 281.35 158.958 281.886 157.952C281.749 158.71 281.873 159.492 282.239 160.17C282.604 160.848 283.189 161.382 283.898 161.684C284.617 161.957 285.389 162.057 286.154 161.975C286.918 161.894 287.653 161.634 288.298 161.216C290.734 159.353 292.429 156.685 293.082 153.688C293.24 158.002 297.882 159.062 299.45 154.274C299.452 154.824 299.568 155.368 299.791 155.87C300.013 156.373 300.338 156.824 300.744 157.195C301.15 157.566 301.628 157.849 302.149 158.026C302.669 158.203 303.221 158.27 303.769 158.222C304.317 158.175 304.849 158.015 305.332 157.752C305.815 157.489 306.238 157.128 306.574 156.693C306.911 156.258 307.153 155.758 307.287 155.225C307.42 154.692 307.442 154.136 307.35 153.594C308.141 154.363 309.201 154.791 310.304 154.787C311.407 154.783 312.465 154.347 313.25 153.572C315.8 151.076 315.56 146.044 310.272 142.4ZM272.426 127.146C271.683 127.601 271.118 128.295 270.825 129.115C270.531 129.934 270.525 130.829 270.81 131.652C271.221 132.307 271.781 132.857 272.444 133.256C273.107 133.655 273.854 133.893 274.626 133.95C271.664 134.91 267.712 137.63 267.928 140.722C268.036 142.37 269.906 143.868 271.374 143.102C271.692 142.932 271.974 142.678 272.298 142.528C273.498 141.976 274.872 143.018 275.466 144.198C276.043 145.43 276.218 146.812 275.964 148.148C275.71 149.484 275.041 150.706 274.052 151.64C273.651 152.117 273.141 152.489 272.565 152.726C271.99 152.963 271.365 153.057 270.745 153.001C270.125 152.945 269.528 152.739 269.004 152.402C268.481 152.065 268.046 151.607 267.738 151.066C267.768 152.896 266.04 153.776 265.738 155.382C258.562 154.27 254.426 147.03 257.892 138.968C258.368 140.152 259.178 141.172 260.224 141.902C261.27 142.633 262.507 143.043 263.782 143.082C263.403 143.595 262.913 144.015 262.35 144.313C261.786 144.611 261.163 144.779 260.526 144.804C259.823 144.857 259.124 144.653 258.56 144.23C258.35 144.108 258.1 144.075 257.865 144.137C257.63 144.198 257.429 144.351 257.306 144.56C257.189 144.772 257.159 145.02 257.22 145.253C257.281 145.487 257.43 145.687 257.636 145.814C261.4 148.45 267.436 144.196 265.162 141.814C264.162 140.792 262.646 141.514 261.092 140.284C260.033 139.298 259.339 137.983 259.124 136.552C262.556 130.902 269.912 124.614 276.558 125.092C276.63 125.28 276.747 125.448 276.9 125.58C277.052 125.711 277.235 125.803 277.432 125.846C275.677 125.834 273.951 126.284 272.426 127.152V127.146Z" fill="black"/>
<path d="M265.453 133.239C265.176 133.239 264.905 133.321 264.675 133.475C264.445 133.629 264.266 133.847 264.16 134.103C264.054 134.359 264.026 134.64 264.08 134.912C264.134 135.184 264.267 135.433 264.463 135.629C264.659 135.825 264.908 135.958 265.18 136.012C265.451 136.066 265.733 136.038 265.989 135.932C266.245 135.826 266.463 135.647 266.617 135.417C266.771 135.186 266.853 134.916 266.853 134.639C266.856 134.454 266.822 134.271 266.752 134.1C266.683 133.928 266.58 133.773 266.45 133.642C266.319 133.512 266.163 133.409 265.992 133.339C265.821 133.27 265.638 133.236 265.453 133.239ZM268.175 129.135C267.969 129.261 267.819 129.463 267.758 129.697C267.696 129.931 267.727 130.179 267.845 130.391C268.091 130.838 268.2 131.348 268.158 131.856C268.117 132.365 267.926 132.85 267.611 133.251C267.49 133.461 267.457 133.711 267.518 133.946C267.58 134.181 267.732 134.381 267.941 134.505C268.045 134.566 268.16 134.606 268.279 134.623C268.399 134.64 268.52 134.632 268.637 134.602C268.753 134.571 268.863 134.517 268.959 134.444C269.054 134.371 269.135 134.279 269.195 134.175C270.923 131.925 269.601 128.219 268.175 129.135ZM263.785 143.085C263.769 143.11 263.756 143.137 263.745 143.165L263.785 143.085ZM271.757 280.935C271.943 280.595 271.821 280.415 272.001 278.761V278.697C273.001 269.957 278.831 262.479 281.201 254.127C281.266 253.893 281.235 253.642 281.115 253.431C280.995 253.22 280.796 253.065 280.562 253C280.328 252.935 280.078 252.966 279.866 253.086C279.655 253.206 279.5 253.405 279.435 253.639C276.835 262.793 270.389 270.733 270.035 280.505C270.031 280.711 270.096 280.913 270.222 281.077C270.347 281.241 270.524 281.357 270.724 281.407C270.925 281.457 271.136 281.438 271.323 281.352C271.511 281.266 271.664 281.119 271.757 280.935ZM260.381 355.837C258.631 354.461 247.825 355.711 245.965 356.785C244.923 357.385 237.407 364.227 240.777 364.365C246.177 364.587 251.601 364.597 257.001 364.385C258.208 364.451 259.405 364.147 260.435 363.515C261.38 362.456 261.897 361.084 261.887 359.666C261.877 358.247 261.34 356.882 260.381 355.837ZM327.709 335.309C327.316 335.585 326.98 335.934 326.721 336.339C325.8 337.501 324.589 338.4 323.209 338.945C321.83 339.49 320.332 339.662 318.865 339.443L318.715 340.421C319.387 349.643 319.283 351.399 320.501 353.233C320.935 353.975 321.628 354.53 322.447 354.791C323.265 355.052 324.152 355.001 324.935 354.647C325.854 353.918 326.491 352.892 326.735 351.745C330.211 341.429 330.947 339.929 330.723 337.795C330.505 335.473 328.801 334.693 327.709 335.309Z" fill="black"/>
</svg>
