<svg xmlns="http://www.w3.org/2000/svg" viewBox="0 0 86.9627 139.27444">
  <g id="a455b45d-13a7-4f68-9fbd-185b3256b236" data-name="Layer 2">
    <g id="be81686e-275f-4a1c-ab56-3b78c6a239ed" data-name="Layer 1">
      <path d="M46.72128,33.77444a4.34872,4.34872,0,0,0-.7-.4,7.83789,7.83789,0,0,1-.5,1.4,9.88115,9.88115,0,0,1-2.2,3.5c-1.8,1.7-4.6,1.7-6.9,1.2a9.5141,9.5141,0,0,1-5.6-3.3,5.68157,5.68157,0,0,1-1.1-3.3v-.9a19.47719,19.47719,0,0,0-4.5,2.4,31.91979,31.91979,0,0,0-9.5,12.3,63.37451,63.37451,0,0,0-3,8.3c-.4,1.5-.9,3-1.3,4.5-.1.2-.1.5-.2.7-.3,1.3-.7,2.7-1,4a174.90058,174.90058,0,0,0-3,18.8c-.1.8-.1,1.6-.2,2.3a.26517.26517,0,0,0,.3.3c1.5.2,3,.2,4.5.3.9,0,1.7.1,2.6.1.1-.2.5-.2.5,0,1.4,0,2.9.1,4.3.1,1.6,0,3.3.1,4.9.1a19.4155,19.4155,0,0,0,4.4,3.1,21.31172,21.31172,0,0,0,5.5,2c1.1.3,2.2.4,3.3.6h0a.3193.3193,0,0,1-.3-.3c.1-1.9.1-3.8.3-5.6.1-.7.1-1.4.2-2.1a24.227,24.227,0,0,1,1.9-7,15.49567,15.49567,0,0,1-3.2-2,16.03718,16.03718,0,0,1-5.1-6.7,23.27485,23.27485,0,0,1-1.1-5.1,23.5494,23.5494,0,0,1-.5-5.9.3.3,0,1,1,.6,0,24.61215,24.61215,0,0,0,.6,6.6,19.10042,19.10042,0,0,0,1.2,4.7,14.29035,14.29035,0,0,0,2.3,3.7,15.70955,15.70955,0,0,0,5.8,4.4,17.63222,17.63222,0,0,0,4,.7c-.2-.1-.3-.2-.5-.3l-1.5-.9c-.2-.1-.3-.2-.5-.3l-.2-.1h0c-.2,0-.2-.2-.2-.4v-.1c.1-.1.1-.2.2-.2a33.965,33.965,0,0,1,3.4-3.2l-1.3-.3c-1.4-.4-2.9-.8-4.4-1.1-.2,0-.2-.2-.2-.4h0v-.1a36.51339,36.51339,0,0,0,2.5-5.3c2.4-6.5,3-13.5,3.2-20.4v-.1c0-.1.1-.2.3-.2a13.66293,13.66293,0,0,1,1.9.2c1.4.2,2.8.4,4.3.7.5.1.9.2,1.4.3.1-1.9.2-3.9.2-5.9v-.8a46.2767,46.2767,0,0,0-5.9-4.6Zm-22.7,52.5c-.2-.2-.4-.3-.6-.5a20.53821,20.53821,0,0,1-3.4-3.8,28.89179,28.89179,0,0,1-4.6-9.7,26.56312,26.56312,0,0,1-.7-10.5c.1-.4.6-.2.6.2a21.76364,21.76364,0,0,0-.1,5.7,29.50645,29.50645,0,0,0,3,10.1,25.76215,25.76215,0,0,0,6.2,8.1h0C24.62128,86.07443,24.22128,86.47444,24.02128,86.27444Zm6.9-3.2a.3.3,0,1,1,.6,0,5.73985,5.73985,0,0,0,.2,2.9,1.92168,1.92168,0,0,0,1.8,1.3.3.3,0,1,1,0,.6,2.2987,2.2987,0,0,1-2.2-1.4A5.659,5.659,0,0,1,30.92128,83.07443Z" fill="#007bc0"/>
      <path d="M30.82128,36.17444a9.0372,9.0372,0,0,0,5.6,3.3c2.3.5,5.1.4,6.9-1.2a9.88118,9.88118,0,0,0,2.2-3.5,7.83789,7.83789,0,0,0,.5-1.4,15.985,15.985,0,0,0,.5-2.1c-.2.1-.4.1-.6.2a8.30108,8.30108,0,0,1-.6,2.1,10.5648,10.5648,0,0,1-1.8,3.5c-1.5,2-4.2,2.3-6.5,1.9a9.41347,9.41347,0,0,1-5.5-2.8,5.4451,5.4451,0,0,1-1.3-3,12.51109,12.51109,0,0,1,.7-4.3c.3-1.2.7-2.4,1-3.5a1.44531,1.44531,0,0,1-.7.2c-.3.9-.5,1.8-.8,2.7a22.08926,22.08926,0,0,0-.8,3.7v.9A6.61924,6.61924,0,0,0,30.82128,36.17444Z" fill="#000001"/>
      <path d="M32.52128,25.17444c.9,3.3,4,5.4,7.2,6.2a13.4175,13.4175,0,0,0,6.3,0c.2-.1.4-.1.6-.2a12.27167,12.27167,0,0,0,2.6-1.2,7.20813,7.20813,0,0,0,3-4.4c1.3-.2,3-.9,3.4-2.2a2.52695,2.52695,0,0,0-1.7-3.1c-.1,0-.2,0-.2-.1h-.6a1.42132,1.42132,0,0,0-.6.2c-.1,0-.2.1-.3.1a9.90641,9.90641,0,0,0-2.6-5.2,8.554,8.554,0,0,0-2.2-1.5,12.08928,12.08928,0,0,0-1.8-.5,16.10973,16.10973,0,0,0-4.9.1,11.39371,11.39371,0,0,0-4.7,1.9,8.67282,8.67282,0,0,0-3.2,5.5,3.22723,3.22723,0,0,0-2.1-.8,2.84162,2.84162,0,0,0-1.6,5.1l.6.3a3.37755,3.37755,0,0,0,2,.1c.2-.1.5-.1.7-.2C32.22128,25.37444,32.32128,25.27444,32.52128,25.17444Zm-3.2-.3a2.23388,2.23388,0,0,1-1.1-2.2,2.36037,2.36037,0,0,1,1.7-1.9,2.54679,2.54679,0,0,1,2.6.9.30417.30417,0,0,0,.4,0l.1-.1a9.02276,9.02276,0,0,1,2.7-5.4,10.36939,10.36939,0,0,1,4.4-2,17.82048,17.82048,0,0,1,4.6-.3,11.62746,11.62746,0,0,1,1.8.4,5.24371,5.24371,0,0,1,1.8,1,9.61732,9.61732,0,0,1,3.2,5.9c0,.2.2.2.4.2h.1a3.02178,3.02178,0,0,1,1.6-.5,1.86944,1.86944,0,0,1,1.4,2.3c0,.1,0,.2-.1.2a2.54453,2.54453,0,0,1-1.2,1.1,6.35622,6.35622,0,0,1-1.8.6c-.1,0-.2.1-.3.2a6.43834,6.43834,0,0,1-2.4,4,8.76583,8.76583,0,0,1-4.1,1.7,12.4693,12.4693,0,0,1-9-1.8,6.92154,6.92154,0,0,1-3.1-4.5c0-.2-.2-.2-.4-.2h-.1A3.07957,3.07957,0,0,1,29.32128,24.87444Z" fill="#000001"/>
      <path d="M48.52128,67.27444a23.4754,23.4754,0,0,0,1.4-4.5c.4-1.6.7-3.2,1-4.8a1.49319,1.49319,0,0,1-.7.3,1.39111,1.39111,0,0,1-1.7-.9h0v-.1a3.22257,3.22257,0,0,1,.7-2.5c.9-1.3,1.8-2.5,2.7-3.8.2-1.5.3-3,.4-4.5a1.94945,1.94945,0,0,1,.1-.8l-.2-.1c-.8-.2-1.7-.4-2.6-.6a35.6145,35.6145,0,0,0-4.4-.6c-.1,1.9-.1,3.8-.3,5.6-.5,6.8-1.9,13.7-5.3,19.7.6.1,1.1.3,1.7.4,1.3.3,2.7.7,4,1,1.3-1.1,2.7-2.2,4-3.3-.2-.1-.5-.2-.7-.3-.1.2-.2,0-.1-.2Z" fill="#b2d7ea"/>
      <path d="M39.72128,69.77444c3.4-6,4.8-12.8,5.3-19.7.1-1.9.2-3.8.3-5.6a31.08865,31.08865,0,0,1,4.4.6,24.37439,24.37439,0,0,1,2.6.6l.2.1v-.6c-.5-.1-.9-.2-1.4-.3-1.4-.3-2.8-.5-4.3-.7-.6-.1-1.2-.1-1.9-.2-.1,0-.2.1-.3.2v.1c-.2,6.9-.7,13.9-3.2,20.4a36.5135,36.5135,0,0,1-2.5,5.3c-.1.1,0,.3.1.4h.1c1.5.3,2.9.7,4.4,1.1.4.1.9.2,1.3.3l.1-.1c.2-.1.3-.3.5-.4-1.3-.4-2.7-.7-4-1C40.82128,70.07443,40.32128,69.97444,39.72128,69.77444Z" fill="#000001"/>
      <path d="M56.82128,60.47444c.1-.5.2-.9.3-1.4a6.46733,6.46733,0,0,1,.4-1.3l-1.4,1.8c-.5.6-1.2,1.5-2.1,1.3a1.49977,1.49977,0,0,1-1.1-1.4,5.33792,5.33792,0,0,1,.5-2.5c.2-.7.4-1.3.6-2l-1.5,1.5a9.01614,9.01614,0,0,0-.9,1,2.20205,2.20205,0,0,0-.1.8,52.27877,52.27877,0,0,1-1.2,5.4,25.32859,25.32859,0,0,1-1.2,3.6,4.87524,4.87524,0,0,1,.7.3c.5-.4.9-.7,1.4-1.1,1.9-1.5,3.8-3,5.7-4.4,0-.1-.1-.1-.1-.2A3.29486,3.29486,0,0,1,56.82128,60.47444Zm3.4-17.4a10.42381,10.42381,0,0,1,4.9-1.5,14.02568,14.02568,0,0,1,5,.6,6.11677,6.11677,0,0,1,1.2.5,2.01009,2.01009,0,0,1,.8.4,9.90843,9.90843,0,0,1,1.7,1.1c.3-1.5.5-3.1.9-4.6a34.0108,34.0108,0,0,1-4.5.3,68.63723,68.63723,0,0,1-16.9-1.5c0,3.2-.2,6.3-.4,9.4-.1.8-.1,1.6-.2,2.4a44.038,44.038,0,0,1,3.5-3.9,24.41745,24.41745,0,0,1,4-3.2Z" fill="#b2d7ea"/>
      <path d="M52.52128,45.17444v.6a1.94943,1.94943,0,0,1-.1.8c-.1,1.5-.2,3-.4,4.5a2.69577,2.69577,0,0,1,.7-.8,19.4189,19.4189,0,0,0,.2-2.4c.2-3.1.4-6.3.4-9.4a68.21008,68.21008,0,0,0,16.9,1.5l4.5-.3c-.4,1.5-.6,3.1-.9,4.6.1.1.2.3.4.3h.1c0-.2.1-.4.1-.6.2-1.1.4-2.2.6-3.4l.3-1.2a.51953.51953,0,0,0-.2-.4h-.1a66.07659,66.07659,0,0,1-17.2-.4,40.47826,40.47826,0,0,1-4.8-.9h-.3c-.1,0-.1.1-.1.2v1.3A39.848,39.848,0,0,1,52.52128,45.17444Zm-2.2,18.5c.5-2.1,1-4.2,1.3-6.3a4.34886,4.34886,0,0,1-.7.6c-.3,1.6-.6,3.2-1,4.8a23.4754,23.4754,0,0,1-1.4,4.5c-.1.1,0,.3.1.4h.1c.2.1.5.2.7.3l.5-.4c-.2-.1-.5-.2-.7-.3.4-1.2.8-2.4,1.1-3.6Zm-5-38.7a2.197,2.197,0,0,0-2.3-.8,2.41539,2.41539,0,0,0-1.3,1.8,1.81262,1.81262,0,0,0,.9,2,2.19127,2.19127,0,0,0,2.4-.7A1.97346,1.97346,0,0,0,45.32128,24.97444Zm-6.9-4a2.619,2.619,0,0,0-.4,2.1c.1.4.6.2.6-.2a1.79761,1.79761,0,0,1,.4-1.6C39.12128,20.97444,38.62128,20.67444,38.42128,20.97444Zm9.6.5-.3,1.7c-.1.4.5.5.6.2l.3-1.7C48.62128,21.27444,48.12128,21.07444,48.02128,21.47444Z" fill="#000001"/>
      <path d="M14.12128,86.07443v.2l-1,16.2-.1.9v.3c.1.1.3.1.3-.1h0v-.3l1.1-16.9v-.1C14.42128,85.87444,14.22128,85.77444,14.12128,86.07443Zm-2,29.7a.09794.09794,0,0,0-.1.1h0a3.55291,3.55291,0,0,0-.2,1c-.2,1-.3,2.1-.5,3.1a29.66247,29.66247,0,0,0-.3,4.2.3.3,0,0,0,.6,0c.1-1.4.2-2.7.3-4.1a17.77691,17.77691,0,0,1,.7-3.9v-.1a.51955.51955,0,0,0-.2-.4h0c-.2.1-.2.1-.3.1Zm39.1-13.2v13.2c0,2.4,0,4.8-.1,7.3a.26517.26517,0,0,0,.3.3.31931.31931,0,0,0,.3-.3c0-4.3.1-8.6.1-12.9,0-4.4,0-8.8-.1-13.2,0-2.4,0-4.7-.1-7.1l-.6.2C51.12128,94.17443,51.12128,98.37444,51.22128,102.57443Zm-14.5,1.3c-.7,5-1.2,10-1.4,15-.1,1.4-.1,2.9-.1,4.3a.3.3,0,1,0,.6,0,149.10091,149.10091,0,0,1,1-14.9c.2-1.4.3-2.8.5-4.3,0-.3-.5-.5-.6-.1Z" fill="#000001"/>
      <path d="M79.92128,139.27444c1.3-.4,2.6-.9,3.9-1.4" fill="#b2d7ea"/>
      <path d="M78.62128,49.57443l-.9-1.5h0c-.1-.2-.3-.4-.4-.6-.3-.4-.7-.9-1-1.3a15.37067,15.37067,0,0,0-1.9-1.7h0a.21508.21508,0,0,1-.2-.2c-.1-.1-.2-.1-.2-.2-.5-.4-1.1-.7-1.7-1.1l.2.2c.2.3.3.6.5.9a13.01766,13.01766,0,0,1,.8,1.7,21.72392,21.72392,0,0,1,1.2,3.6,13.63555,13.63555,0,0,1,.4,1.7,25.29517,25.29517,0,0,1,.1,5.5l.1.1c.5.4,1,.9,1.5,1.3a41.2114,41.2114,0,0,1,2.8,3.1,7.63289,7.63289,0,0,1,.8,1.1,3.03915,3.03915,0,0,1,.5.7,23.39174,23.39174,0,0,0-.3-6.8A34.03786,34.03786,0,0,0,78.62128,49.57443Z" fill="#007bc0"/>
      <path d="M75.22129,51.17444a8.46818,8.46818,0,0,0-.4-1.7,25.32937,25.32937,0,0,0-1.2-3.6c-.3-.6-.5-1.1-.8-1.7-.2-.3-.3-.6-.5-.9,0-.1-.1-.1-.2-.2a2.9944,2.9944,0,0,0-.8-.4c-.4-.2-.8-.3-1.2-.5a12.09034,12.09034,0,0,0-5-.6,10.78339,10.78339,0,0,0-4.9,1.5,18.03962,18.03962,0,0,0-4,3.3,44.03521,44.03521,0,0,0-3.5,3.9,2.69592,2.69592,0,0,1-.7.8,32.82305,32.82305,0,0,0-2.7,3.8,2.88,2.88,0,0,0-.7,2.5,1.40271,1.40271,0,0,0,1.7,1h.1c.2-.1.5-.2.7-.3.2-.2.5-.4.7-.6.3-.3.6-.7.9-1l1.5-1.5c-.2.7-.4,1.3-.6,2a6.96281,6.96281,0,0,0-.5,2.5,1.31964,1.31964,0,0,0,1.1,1.4c.9.2,1.6-.7,2.1-1.3l1.4-1.8c-.1.4-.3.9-.4,1.3-.1.5-.2.9-.3,1.4a3.295,3.295,0,0,0,0,1.4c0,.1.1.1.1.2l.5-.4a1.26844,1.26844,0,0,1-.1-.6l.3-1.5a29.92519,29.92519,0,0,1,1-3.2.30369.30369,0,0,0-.5-.3c-.8,1-1.6,2-2.4,2.9-.4.5-1.5,2-2.1.9-.4-.7,0-1.8.2-2.5.4-1.2.7-2.4,1.2-3.6a.3037.3037,0,0,0-.5-.3l-1.9,2a17.04337,17.04337,0,0,1-1.9,1.9,1.28387,1.28387,0,0,1-1,.4.76042.76042,0,0,1-.6-.8,3.22718,3.22718,0,0,1,.8-2.1,59.78676,59.78676,0,0,1,6.4-7.9,22.363,22.363,0,0,1,3.7-3.2,11.23024,11.23024,0,0,1,4.4-1.7,12.98694,12.98694,0,0,1,4.8.3,14.27254,14.27254,0,0,1,2.2.8,2.18611,2.18611,0,0,1,.5.3c.1.2.2.3.3.5l.6,1.2a18.35542,18.35542,0,0,1,1.8,5.6,22.65706,22.65706,0,0,1,.2,5.2l.5.5A32.01293,32.01293,0,0,0,75.22129,51.17444Z" fill="#000001"/>
      <path d="M62.32128,88.77444a14.9622,14.9622,0,0,1,1.1-1.3l-2.4-1.8-1.9,1C60.12128,87.27444,61.22129,88.07443,62.32128,88.77444Zm-15.4-13.7c-.1-.1-.2-.1-.3-.2l-.1-.1h0c-.2,0-.2-.2-.2-.4,0-.1.1-.1.1-.2,1.5-1,3-2.1,4.5-3a174.45306,174.45306,0,0,1,16.8-9.7h.3l.1.1h0l.1.1.2.2.5.5c.4.4.9.8,1.3,1.2,2.4,2.2,5,4.3,7.4,6.5,1.2,1,2.4,2,3.5,3,.9-.6,1.7-1.2,2.6-1.7.8-.5,1.5-1,2.3-1.5a49.43167,49.43167,0,0,1-3.6-4.4c-1.2-1.5-2.4-3.1-3.6-4.6-.9-1-1.8-2-2.8-3-1.7-1.6-3.4-3.1-5.2-4.6-.1,0-.2.1-.3.1a35.53911,35.53911,0,0,0-5.3,3.2c-2.4,1.6-4.8,3.4-7.2,5.1-2.5,1.9-4.9,3.8-7.3,5.7-2,1.6-4,3.3-6,5-.7.6-1.3,1.2-2,1.8l-.7.7-.2.2a2.18508,2.18508,0,0,1,.5.3,17.395,17.395,0,0,0,1.8,1.1l.9.6a13.36381,13.36381,0,0,0,4-.6l-1.2-.9C47.62128,75.57443,47.32128,75.27444,46.92128,75.07443Z" fill="#b2d7ea"/>
      <path d="M62.32128,88.77444c-1.1-.8-2.1-1.5-3.2-2.2l-.6.3.3.2c1.1.8,2.3,1.5,3.4,2.4.1.1.3,0,.4-.1a18.25829,18.25829,0,0,1,1.3-1.6c-.2-.1-.3-.2-.5-.3A12.66584,12.66584,0,0,0,62.32128,88.77444Z" fill="#000001"/>
      <path d="M42.52128,75.47444c-.2-.1-.3-.2-.5-.3l.2-.2.7-.7c.7-.6,1.3-1.2,2-1.8,2-1.7,4-3.4,6-5,2.4-1.9,4.9-3.8,7.3-5.7q3.45-2.7,7.2-5.1a41.469,41.469,0,0,1,5.3-3.2c.1,0,.2-.1.3-.1,1.8,1.5,3.5,3,5.2,4.6a26.819,26.819,0,0,1,2.8,3c1.2,1.5,2.4,3,3.6,4.6,1.2,1.5,2.4,3,3.6,4.4a11.35491,11.35491,0,0,0-2.3,1.5c-.9.6-1.7,1.1-2.6,1.7.2.1.3.3.4.4.6-.4,1.3-.9,2-1.3s1.3-.9,2-1.3c.4-.2.7-.4,1.1-.6a.19161.19161,0,0,0,.1-.3h0c0-.1,0-.1-.1-.1-2-2.2-3.9-4.6-5.7-7a3.03885,3.03885,0,0,1-.5-.7,7.63234,7.63234,0,0,1-.8-1.1c-1-1.1-1.9-2.2-2.9-3.1a17.38092,17.38092,0,0,0-1.5-1.3l-.1-.1-.5-.5a17.87828,17.87828,0,0,1-1.4-1.3c-.7-.6-1.5-1.3-2.2-1.9a.36738.36738,0,0,0-.3-.1,26.8787,26.8787,0,0,0-5,2.8c-2.4,1.6-4.8,3.3-7.1,5-.4.3-.9.7-1.3,1l-.6.4c-1.9,1.4-3.8,2.9-5.7,4.4-.5.4-.9.7-1.4,1.1l-.4.4c-1.3,1.1-2.7,2.2-4,3.3-.2.1-.3.3-.5.4v0a25.7563,25.7563,0,0,0-3.4,3.2c-.1.1-.1.2-.2.2-.1.1,0,.3.1.4h.1l.2.1c.2.1.3.2.5.3a22.63037,22.63037,0,0,1,2,1.3h1.1l-.9-.6A11.78088,11.78088,0,0,1,42.52128,75.47444Z" fill="#000001"/>
      <path d="M77.92128,79.77444l.2-.1h0c1.9-1.1,3.9-2.1,5.8-3.2-1.1-1-2.2-2-3.3-2.9-2.7-2.3-5.3-4.6-8-6.9-1.1-1-2.2-1.9-3.3-2.9a12.09447,12.09447,0,0,1-1.6-1.6c-1.5.8-3.1,1.6-4.6,2.4a178.31484,178.31484,0,0,0-16.1,9.9c.1.1.3.2.4.3a10.91652,10.91652,0,0,1,1.7,1.3c.2.1.4.3.6.4.5-.2,1.1-.4,1.6-.6,3.1-1.4,5.6-3.7,8.1-5.9.3-.3.7-.6,1-.9a5.49605,5.49605,0,0,1,.9-.7,1.12887,1.12887,0,0,1,1.5.4,2.0071,2.0071,0,0,1,.1,1.7,12.3778,12.3778,0,0,1-1.4,1.8c-.3.6-.5,1.6.4,1.7a5.01929,5.01929,0,0,0,1.2-.2c.4-.1.8-.3,1.2-.4a9.87959,9.87959,0,0,1,4.8-1,2.57636,2.57636,0,0,1,1.9,1,.98355.98355,0,0,1-.3,1.4.30971.30971,0,0,1-.2.1,26.71793,26.71793,0,0,1-2.6.9l-1.7.6a12.85994,12.85994,0,0,1,1.9.4,11.06882,11.06882,0,0,1,2.6.7,1.54688,1.54688,0,0,1,.9,1.7c-.2.8-1,.8-1.7.7a10.751,10.751,0,0,0-3.1.1,10.16347,10.16347,0,0,1,3.7,1.6c.5.4,1.1,1.2.8,1.8-.4.8-1.4.6-2.1.5a15.46376,15.46376,0,0,0-4.8.1,7.218,7.218,0,0,0-2,.9,5.93779,5.93779,0,0,0-.8.4c.6.5,1.3,1,1.9,1.5.5.4,1,.7,1.4,1,.2.1.3.2.5.3l.1.1c.8-.7,1.6-1.3,2.4-1.9l4.5-3.3h.1c.1,0,.1-.1.2-.1A54.82375,54.82375,0,0,1,77.92128,79.77444Z" fill="#b2d7ea"/>
      <path d="M78.22129,80.17443a.26517.26517,0,0,1-.3-.3.34914.34914,0,0,1,.1-.2l-.1.1c-1.8,1-3.5,2-5.2,3.1-.1,0-.1.1-.2.1a2.95736,2.95736,0,0,0-.4.3.30968.30968,0,0,0,.2-.1c-.1.1-.2.2-.1.3,0,.1.2.2.4.1l3.3-2.1C76.72129,81.07443,77.52128,80.57443,78.22129,80.17443Zm-5.7,2.8a37.18072,37.18072,0,0,0-4.5,3.3c-.8.6-1.6,1.3-2.4,1.9l-.1-.1c-.2-.1-.3-.2-.5-.3a16.96482,16.96482,0,0,1-1.4-1c-.7-.5-1.3-1-1.9-1.5l-.6.3,2.4,1.8c.2.1.3.2.5.3.4.3.7.5,1.1.8.2.1.5.4.7.3l.3-.3c.3-.2.5-.4.8-.6,1.9-1.5,3.9-3,5.9-4.4l.1-.1h-.1a.26517.26517,0,0,1-.3-.3c-.1.1-.1,0,0-.1Zm-25-8.2c-.1-.1-.3-.2-.4-.3a165.37126,165.37126,0,0,1,16.1-9.9c1.5-.8,3.1-1.6,4.6-2.4a12.09447,12.09447,0,0,0,1.6,1.6c1.1,1,2.2,1.9,3.3,2.9,2.7,2.3,5.3,4.6,8,6.9,1.1,1,2.2,1.9,3.3,2.9-.6.3-1.5.8-2.6,1.4-1.7.9-3.4,1.9-3.4,1.9l.3-.1a1.0944,1.0944,0,0,1-.4.2c.1.2.1.3.2.5,1.2-.7,2.5-1.4,3.8-2.1.9-.5,1.7-.9,2.5-1.3l.2-.1c.1-.1.2-.3.1-.4v-.1l-3-2.7c-.2-.1-.3-.3-.4-.4-1.2-1-2.4-2-3.5-3-2.5-2.1-5-4.3-7.4-6.5-.4-.4-.9-.8-1.3-1.2l-.5-.5-.2-.2-.1-.1h0l-.1-.1h0a.1875.1875,0,0,0-.3,0,155.7441,155.7441,0,0,0-16.8,9.7l-4.5,3c-.1.1-.2.3-.1.4,0,.1.1.1.2.1h0l.1.1c.1.1.2.1.3.2.3.2.7.5,1,.7l1.2.9c.2-.1.5-.1.7-.2-.2-.1-.4-.3-.6-.4A18.20109,18.20109,0,0,0,47.52128,74.77444Z" fill="#000001"/>
      <path d="M60.92128,85.57443l.6-.3c.3-.1.5-.3.8-.4a12.14708,12.14708,0,0,1,2-.9,12.92081,12.92081,0,0,1,4.8-.1c.7.1,1.8.3,2.2-.4s-.3-1.4-.8-1.8a8.7136,8.7136,0,0,0-3.7-1.6,10.75061,10.75061,0,0,1,3.1-.1c.7.1,1.5,0,1.7-.7a1.68152,1.68152,0,0,0-.9-1.7,11.06832,11.06832,0,0,0-2.6-.7c-.6-.1-1.3-.3-1.9-.4l1.7-.6a19.85507,19.85507,0,0,0,2.6-.9,1.04027,1.04027,0,0,0,.6-1.3.34909.34909,0,0,0-.1-.2,2.74828,2.74828,0,0,0-1.9-1,11.17194,11.17194,0,0,0-4.8,1c-.4.1-.8.3-1.2.4a2.53678,2.53678,0,0,1-1.2.2c-.9-.1-.8-1.1-.4-1.7a21.96557,21.96557,0,0,0,1.4-1.8,1.72587,1.72587,0,0,0-.1-1.7,1.12888,1.12888,0,0,0-1.5-.4,5.49512,5.49512,0,0,0-.9.7c-.3.3-.7.6-1,.9-2.5,2.2-5,4.5-8.1,5.9-.5.2-1,.4-1.6.6-.2.1-.5.1-.7.2a13.85837,13.85837,0,0,1-4,.6h-1.1a17.63277,17.63277,0,0,1-4-.7h.1c.3.2,0,.6-.3.5a.34914.34914,0,0,1-.2-.1,21.42514,21.42514,0,0,0-1.9,7,14.91909,14.91909,0,0,0-.2,2.1,53.9586,53.9586,0,0,0-.3,5.6.31929.31929,0,0,0,.3.3h0a32.12414,32.12414,0,0,0,13.7-1.9l.6-.2a45.39205,45.39205,0,0,0,6.8-3l.6-.3,1.8-1.1Zm-4.2,1.5a52.38153,52.38153,0,0,1-7.8,3,52.27628,52.27628,0,0,1-5.4,1.2,22.53038,22.53038,0,0,1-5.8.1,61.31745,61.31745,0,0,1,.5-7.4,23.58959,23.58959,0,0,1,1.9-6.9,16.70046,16.70046,0,0,0,9.4,0,21.76642,21.76642,0,0,0,8.1-4.9c1.2-1,2.4-2.1,3.7-3.1a.76466.76466,0,0,1,.9-.2,1.0122,1.0122,0,0,1,.4.7c.1.7-.5,1.3-1,1.7a3.10254,3.10254,0,0,0-.9,1.8,1.29747,1.29747,0,0,0,.9,1.4,4.21933,4.21933,0,0,0,2.2-.3,22.50321,22.50321,0,0,1,2.4-.8,7.51156,7.51156,0,0,1,2.6-.5,3.07914,3.07914,0,0,1,1.3.3c.3.1.8.5.6.9-.2.3-.9.4-1.2.5l-1.5.5-3,1c-.2.1-.3.5,0,.6a34.02195,34.02195,0,0,1,4.6.9c.5.1,1.3.3,1.5.9a.66285.66285,0,0,1-.2.7,3.08313,3.08313,0,0,1-1,.1,12.3452,12.3452,0,0,0-4.7.4c-.2,0-.2.2-.2.4,0,.1.1.2.3.2a9.77978,9.77978,0,0,1,4.6,1.6,2.69569,2.69569,0,0,1,.8.7c.2.3.3.7-.2.8h-1c-.4,0-.8-.1-1.2-.1a10.82159,10.82159,0,0,0-4.4.3,9.81878,9.81878,0,0,0-1.8.8c-1.8.9-3.6,1.9-5.4,2.7Zm5.7-35.1a5.19384,5.19384,0,0,0-1.7,1.9c-.1.1,0,.3.1.4s.3,0,.4-.1a4.62907,4.62907,0,0,1,1.5-1.6C63.02128,52.27444,62.82128,51.77444,62.42128,51.97444Zm-4.7-3-2,2.3c-.2.3.2.7.4.4l2-2.3C58.42128,49.17444,58.02128,48.67444,57.72128,48.97444Z" fill="#000001"/>
      <path d="M34.22128,72.07443a15.38589,15.38589,0,0,1-2.3-3.7,19.10042,19.10042,0,0,1-1.2-4.7,24.61174,24.61174,0,0,1-.6-6.6c0-.4-.5-.4-.6,0a23.1595,23.1595,0,0,0,.5,5.9,30.99212,30.99212,0,0,0,1.1,5.1,16.03718,16.03718,0,0,0,5.1,6.7,21.36515,21.36515,0,0,0,3.2,2,.34914.34914,0,0,1,.2.1c.3.1.6-.3.3-.5h-.1A16.20676,16.20676,0,0,1,34.22128,72.07443Zm-16.1,5.7a30.17534,30.17534,0,0,1-3-10.1,21.76371,21.76371,0,0,1,.1-5.7c.1-.4-.5-.5-.6-.2a26.56312,26.56312,0,0,0,.7,10.5,28.89156,28.89156,0,0,0,4.6,9.7,24.34718,24.34718,0,0,0,3.4,3.8c.2.2.4.3.6.5a.28343.28343,0,0,0,.4-.4h0a29.10488,29.10488,0,0,1-6.2-8.1Zm44-1.3-1.2.5c-.3.1-.2.7.2.6l1.3-.5C62.62128,76.97444,62.52128,76.37444,62.12128,76.47444Zm.8,3.9a6.10943,6.10943,0,0,0-1.4.7c-.3.2,0,.7.3.5a3.09927,3.09927,0,0,1,1.3-.6C63.42128,80.77444,63.32128,80.17443,62.92128,80.37444Zm-30.6-57.6h-2.5a.26515.26515,0,0,0-.3.3.31928.31928,0,0,0,.3.3h2.5a.26516.26516,0,0,0,.3-.3C32.52128,22.97444,32.42128,22.77444,32.32128,22.77444Zm4.7-3.5a4.09573,4.09573,0,0,1,2.7-1.5c.4-.1.2-.6-.2-.6a4.38141,4.38141,0,0,0-3,1.7C36.32128,19.27444,36.82128,19.57444,37.02128,19.27444Zm10.7-.5a1.468,1.468,0,0,1,2,.7h0c.2.3.7,0,.5-.3a2.03439,2.03439,0,0,0-2.8-.9C47.02128,18.47444,47.32128,18.97444,47.72128,18.77444Zm4.1,5c.4-.2.8-.5,1.2-.7.3-.2,0-.7-.3-.5a7.45986,7.45986,0,0,1-1.2.7c-.1.1-.2.3-.1.4s.3.2.4.1Z" fill="#000001"/>
      <path d="M52.72128,18.87444a27.69519,27.69519,0,0,0-1.1-4.8c-.1-.2-.1-.4-.2-.6-.1-.3-.3-.6-.4-.9a8.636,8.636,0,0,0-1-1.6c-.1-.2-.3-.4-.4-.6a15.02356,15.02356,0,0,0-6.7-4.9,23.412,23.412,0,0,1,1.9-4.6c.1-.1,0-.3-.1-.4s-.3,0-.4.1a27.6495,27.6495,0,0,0-2,4.7c-.1,0-.1,0-.2-.1a29.11218,29.11218,0,0,0-1.6-5c-.1-.3-.7-.2-.6.2a36.763,36.763,0,0,1,1.5,4.7,13.88788,13.88788,0,0,0-9.8,1.2,15.12753,15.12753,0,0,0-4.4,3.5l-.9,1.2c-.1.2-.3.4-.4.6-.5.8-.9,1.6-1.3,2.4l-.3.6h0l-.4.9-.6,1.2a18.21165,18.21165,0,0,1-1.5,2.7,8.27374,8.27374,0,0,1-4.6,3.1h-.1c-.2,0-.3.1-.5.1-1.8.5-3.7.6-5.6,1.2a11.98782,11.98782,0,0,0-5,2.9,14.53953,14.53953,0,0,0-4.2,11.4c.2,2.2.9,4.4.9,6.6a5.49558,5.49558,0,0,1-1,3.2,13.49693,13.49693,0,0,0-1.5,2.6,8.50414,8.50414,0,0,0,3.7,9.2,8.3738,8.3738,0,0,0,5.4,1,11.69672,11.69672,0,0,0,2-.5c.1-.2.1-.5.2-.7.4-1.5.8-3,1.3-4.5a63.37451,63.37451,0,0,1,3-8.3,30.99217,30.99217,0,0,1,9.5-12.3,19.47719,19.47719,0,0,1,4.5-2.4,24.47261,24.47261,0,0,1,.8-3.7,27.58582,27.58582,0,0,1,.8-2.7,2.77,2.77,0,0,1-2-.1,2.64751,2.64751,0,0,1-1.5-3.6l.3-.6a3.24811,3.24811,0,0,1,2.2-1.2,3.22723,3.22723,0,0,1,2.1.8,9.13062,9.13062,0,0,1,3.2-5.5,11.39371,11.39371,0,0,1,4.7-1.9,16.04333,16.04333,0,0,1,4.9-.1,6.0702,6.0702,0,0,1,1.8.5,10.70665,10.70665,0,0,1,2.2,1.5,9.55679,9.55679,0,0,1,2.6,5.2.36737.36737,0,0,1,.3-.1c.2-.1.4-.1.6-.2A7.08412,7.08412,0,0,0,52.72128,18.87444Zm-19.2,69a.3.3,0,0,0,0-.6,1.831,1.831,0,0,1-1.8-1.3,7.01257,7.01257,0,0,1-.2-2.9c0-.4-.5-.4-.6,0a6.60863,6.60863,0,0,0,.3,3.4A2.65468,2.65468,0,0,0,33.52128,87.87444Z" fill="#000001"/>
    </g>
  </g>
</svg>
